<?xml version="1.0" encoding="UTF-8" standalone="no"?><!DOCTYPE svg PUBLIC "-//W3C//DTD SVG 1.1//EN" "http://www.w3.org/Graphics/SVG/1.1/DTD/svg11.dtd"><svg width="100%" height="100%" viewBox="0 0 600 500" version="1.1" xmlns="http://www.w3.org/2000/svg" xmlns:xlink="http://www.w3.org/1999/xlink" xml:space="preserve" style="fill-rule:evenodd;clip-rule:evenodd;stroke-linejoin:round;stroke-miterlimit:1.41421;"><g><path d="M43.438,402.9c-1.688,0.967 -3.513,1.7 -5.463,2.204c-1.954,0.5 -3.954,0.754 -6.012,0.754c-7.967,0 -13.875,-3.608 -17.721,-10.837c-3.846,-7.225 -5.767,-18.284 -5.767,-33.184c0,-14.854 2.054,-26.104 6.158,-33.754c4.109,-7.65 10.167,-11.475 18.179,-11.475c2.009,0 3.913,0.204 5.705,0.605c1.791,0.404 3.512,1.029 5.162,1.875l0,8.633c-1.891,-1.246 -3.633,-2.154 -5.225,-2.717c-1.587,-0.562 -3.167,-0.846 -4.737,-0.846c-5.796,0 -10.055,2.959 -12.771,8.875c-2.717,5.917 -4.079,15.159 -4.079,27.721c0,13.646 1.262,23.3 3.775,28.954c2.516,5.654 6.695,8.484 12.529,8.484c1.208,0 2.367,-0.121 3.475,-0.363c1.108,-0.242 2.183,-0.604 3.229,-1.087c0.604,-0.284 1.208,-0.613 1.813,-0.996c0.604,-0.384 1.187,-0.796 1.75,-1.242l0,8.396Z" style="fill:#fff;fill-rule:nonzero;"/><path d="M53.463,317.092l8.091,0l0,80.854l18.9,0l0,7.308l-26.991,0l0,-88.162Z" style="fill:#fff;fill-rule:nonzero;"/><path d="M106.542,323.375c-4.671,0 -8.1,3.029 -10.296,9.088c-2.196,6.058 -3.292,15.608 -3.292,28.654c0,13.041 1.096,22.608 3.292,28.708c2.196,6.1 5.625,9.154 10.296,9.154c4.708,0 8.162,-3.012 10.354,-9.029c2.196,-6.021 3.291,-15.629 3.291,-28.833c0,-13.167 -1.095,-22.746 -3.291,-28.746c-2.192,-5.996 -5.646,-8.996 -10.354,-8.996Zm-21.859,37.858c0,-15.458 1.771,-26.87 5.313,-34.237c3.541,-7.367 9.058,-11.05 16.546,-11.05c7.487,0 13.012,3.683 16.575,11.05c3.562,7.367 5.345,18.779 5.345,34.237c0,15.463 -1.783,26.842 -5.345,34.15c-3.563,7.305 -9.088,10.959 -16.575,10.959c-7.488,0 -13.005,-3.654 -16.546,-10.959c-3.542,-7.308 -5.313,-18.687 -5.313,-34.15Z" style="fill:#fff;fill-rule:nonzero;"/><path d="M141.808,317.092l8.092,0l0,63.041c0,7.371 0.783,12.392 2.354,15.067c1.571,2.679 4.325,4.017 8.271,4.017c3.946,0 6.704,-1.338 8.275,-4.017c1.571,-2.675 2.354,-7.696 2.354,-15.067l0,-63.041l8.029,0l0,63.041c0,9.746 -1.416,16.55 -4.258,20.413c-2.833,3.862 -7.638,5.796 -14.4,5.796c-6.8,0 -11.625,-1.934 -14.462,-5.796c-2.838,-3.863 -4.255,-10.667 -4.255,-20.413l0,-63.041Z" style="fill:#fff;fill-rule:nonzero;"/><path d="M205.15,324.4l0,73.429l1.571,0c7.125,0 12.066,-2.437 14.825,-7.308c2.758,-4.871 4.137,-14.192 4.137,-27.959c0,-15.416 -1.329,-25.633 -3.987,-30.645c-2.658,-5.009 -7.488,-7.517 -14.492,-7.517l-2.054,0Zm-8.092,-7.308l10.025,0c10.025,0 17.009,3.133 20.955,9.391c3.941,6.259 5.916,17.925 5.916,34.996c0,16.221 -2.033,27.575 -6.1,34.054c-4.067,6.484 -11.071,9.721 -21.012,9.721l-9.784,0l0,-88.162Z" style="fill:#fff;fill-rule:nonzero;"/><path d="M302.071,402.9c-1.696,0.967 -3.517,1.7 -5.467,2.204c-1.954,0.5 -3.954,0.754 -6.008,0.754c-7.967,0 -13.875,-3.608 -17.725,-10.837c-3.842,-7.225 -5.763,-18.284 -5.763,-33.184c0,-14.854 2.05,-26.104 6.159,-33.754c4.104,-7.65 10.162,-11.475 18.175,-11.475c2.008,0 3.912,0.204 5.704,0.605c1.792,0.404 3.516,1.029 5.167,1.875l0,8.633c-1.896,-1.246 -3.638,-2.154 -5.225,-2.717c-1.596,-0.562 -3.171,-0.846 -4.742,-0.846c-5.796,0 -10.05,2.959 -12.771,8.875c-2.717,5.917 -4.075,15.159 -4.075,27.721c0,13.646 1.258,23.3 3.775,28.954c2.512,5.654 6.687,8.484 12.529,8.484c1.208,0 2.363,-0.121 3.471,-0.363c1.104,-0.242 2.183,-0.604 3.229,-1.087c0.604,-0.284 1.208,-0.613 1.817,-0.996c0.6,-0.384 1.183,-0.796 1.75,-1.242l0,8.396Z" style="fill:#fff;fill-rule:nonzero;"/><path d="M329.667,323.375c-4.671,0 -8.104,3.029 -10.296,9.088c-2.196,6.058 -3.292,15.608 -3.292,28.654c0,13.041 1.096,22.608 3.292,28.708c2.192,6.1 5.625,9.154 10.296,9.154c4.712,0 8.162,-3.012 10.354,-9.029c2.191,-6.021 3.291,-15.629 3.291,-28.833c0,-13.167 -1.1,-22.746 -3.291,-28.746c-2.192,-5.996 -5.642,-8.996 -10.354,-8.996Zm-21.859,37.858c0,-15.458 1.767,-26.87 5.313,-34.237c3.542,-7.367 9.058,-11.05 16.546,-11.05c7.487,0 13.012,3.683 16.575,11.05c3.562,7.367 5.341,18.779 5.341,34.237c0,15.463 -1.779,26.842 -5.341,34.15c-3.563,7.305 -9.088,10.959 -16.575,10.959c-7.488,0 -13.004,-3.654 -16.546,-10.959c-3.546,-7.308 -5.313,-18.687 -5.313,-34.15Z" style="fill:#fff;fill-rule:nonzero;"/><path d="M370.425,317.092l7.125,0l8.938,57.125c0.158,1.045 0.704,5.575 1.633,13.587c0.321,3.221 0.6,5.779 0.841,7.671c0.28,-3.225 0.667,-6.604 1.15,-10.146c0.484,-3.542 1.042,-7.246 1.692,-11.112l9.542,-57.125l6.879,0l10.754,88.162l-7.371,0l-5.979,-57.725c0,-0.246 -0.041,-0.666 -0.117,-1.271c-0.608,-6.558 -1.091,-12.52 -1.454,-17.875c-0.479,5.438 -0.925,9.842 -1.325,13.225c-0.404,3.384 -0.825,6.363 -1.271,8.938l-9.179,54.708l-6.941,0l-8.759,-56.883c-0.037,-0.279 -0.121,-0.746 -0.237,-1.388c-1.129,-7.125 -1.913,-13.321 -2.358,-18.6c-0.238,2.7 -0.526,6.142 -0.846,10.33c-0.484,6.158 -0.784,9.641 -0.905,10.445l-6.404,56.096l-7.304,0l11.896,-88.162Z" style="fill:#fff;fill-rule:nonzero;"/><path d="M438.421,324.279l0,31.521l4.404,0c4.508,0 7.742,-1.25 9.692,-3.742c1.954,-2.5 2.933,-6.604 2.933,-12.321c0,-5.35 -1.067,-9.27 -3.2,-11.745c-2.137,-2.475 -5.475,-3.713 -10.025,-3.713l-3.804,0Zm-8.092,-7.187l11.292,0c7.646,0 13.204,1.883 16.666,5.65c3.459,3.762 5.192,9.787 5.192,18.083c0,7.646 -1.671,13.254 -5.012,16.817c-3.342,3.562 -8.592,5.346 -15.759,5.346l-4.287,0l0,42.266l-8.092,0l0,-88.162Z" style="fill:#fff;fill-rule:nonzero;"/><path d="M485.763,339.313l-7.246,41.066l17.391,0l-7.125,-41.121c-0.283,-1.612 -0.545,-3.537 -0.787,-5.771c-0.238,-2.233 -0.442,-4.679 -0.6,-7.337c-0.204,2.533 -0.438,4.892 -0.696,7.067c-0.267,2.175 -0.575,4.204 -0.937,6.096Zm-2.355,-22.221l7.667,0l17.933,88.162l-8.15,0l-3.441,-17.812l-20.171,0l-3.079,17.812l-8.275,0l17.516,-88.162Z" style="fill:#fff;fill-rule:nonzero;"/><path d="M514.867,391.671c2.133,2.375 4.366,4.166 6.704,5.375c2.333,1.208 4.766,1.808 7.308,1.808c4.104,0 7.475,-1.487 10.104,-4.467c2.642,-2.979 3.963,-6.825 3.963,-11.537c0,-2.008 -0.271,-3.862 -0.821,-5.554c-0.546,-1.692 -1.375,-3.259 -2.504,-4.709c-1.725,-2.216 -4.788,-4.929 -9.175,-8.149c-1.771,-1.292 -3.079,-2.276 -3.925,-2.959c-4.467,-3.629 -7.688,-7.2 -9.663,-10.721c-1.975,-3.52 -2.958,-7.458 -2.958,-11.808c0,-6.6 1.954,-12.083 5.858,-16.454c3.905,-4.367 8.796,-6.55 14.675,-6.55c2.334,0 4.638,0.4 6.913,1.208c2.271,0.804 4.5,2.013 6.671,3.621l0,10.388c-1.771,-2.492 -3.784,-4.4 -6.038,-5.705c-2.254,-1.308 -4.65,-1.966 -7.183,-1.966c-3.825,0 -6.929,1.362 -9.3,4.079c-2.375,2.717 -3.563,6.271 -3.563,10.654c0,3.708 0.805,6.9 2.417,9.571c1.604,2.683 5.412,6.25 11.408,10.725c6.2,4.546 10.284,8.504 12.259,11.862c1.975,3.363 2.958,7.359 2.958,11.988c0,7.004 -2.012,12.75 -6.037,17.237c-4.025,4.492 -9.142,6.734 -15.338,6.734c-2.696,0 -5.25,-0.342 -7.667,-1.025c-2.416,-0.684 -4.77,-1.729 -7.066,-3.142l0,-10.504Z" style="fill:#fff;fill-rule:nonzero;"/><path d="M560.158,391.671c2.13,2.375 4.363,4.166 6.7,5.375c2.334,1.208 4.767,1.808 7.309,1.808c4.104,0 7.475,-1.487 10.112,-4.467c2.633,-2.979 3.954,-6.825 3.954,-11.537c0,-2.008 -0.271,-3.862 -0.816,-5.554c-0.542,-1.692 -1.379,-3.259 -2.505,-4.709c-1.729,-2.216 -4.791,-4.929 -9.179,-8.149c-1.77,-1.292 -3.075,-2.276 -3.925,-2.959c-4.466,-3.629 -7.687,-7.2 -9.662,-10.721c-1.975,-3.52 -2.958,-7.458 -2.958,-11.808c0,-6.6 1.954,-12.083 5.858,-16.454c3.904,-4.367 8.796,-6.55 14.675,-6.55c2.333,0 4.637,0.4 6.912,1.208c2.275,0.804 4.5,2.013 6.675,3.621l0,10.388c-1.775,-2.492 -3.787,-4.4 -6.041,-5.705c-2.255,-1.308 -4.65,-1.966 -7.184,-1.966c-3.825,0 -6.925,1.362 -9.3,4.079c-2.375,2.717 -3.562,6.271 -3.562,10.654c0,3.708 0.804,6.9 2.416,9.571c1.609,2.683 5.413,6.25 11.409,10.725c6.2,4.546 10.287,8.504 12.262,11.862c1.971,3.363 2.959,7.359 2.959,11.988c0,7.004 -2.017,12.75 -6.042,17.237c-4.025,4.492 -9.138,6.734 -15.333,6.734c-2.7,0 -5.255,-0.342 -7.671,-1.025c-2.417,-0.684 -4.771,-1.729 -7.063,-3.142l0,-10.504Z" style="fill:#fff;fill-rule:nonzero;"/><path d="M140.475,472.287l0,7.605c-1.729,1.033 -3.671,1.808 -5.833,2.325c-2.159,0.512 -4.492,0.77 -7,0.77c-5.909,0 -10.667,-1.874 -14.275,-5.62c-3.613,-3.75 -5.417,-8.675 -5.417,-14.78c0,-6.133 1.867,-11.141 5.6,-15.033c3.738,-3.883 8.517,-5.829 14.342,-5.829c2.116,0 4.187,0.225 6.208,0.671c2.021,0.442 3.925,1.1 5.708,1.962l0,7.025c-1.675,-1.087 -3.404,-1.916 -5.183,-2.487c-1.787,-0.571 -3.596,-0.858 -5.438,-0.858c-4.291,0 -7.733,1.345 -10.324,4.033c-2.592,2.691 -3.888,6.267 -3.888,10.725c0,3.929 1.3,7.216 3.908,9.867c2.604,2.645 5.871,3.97 9.805,3.97c1.974,0 3.912,-0.35 5.808,-1.046c1.896,-0.695 3.887,-1.799 5.979,-3.3Z" style="fill:#fff;fill-rule:nonzero;"/><path d="M153.433,462.333c0,4.046 1.35,7.463 4.055,10.267c2.704,2.8 5.979,4.2 9.824,4.2c3.821,0 7.067,-1.4 9.742,-4.2c2.675,-2.804 4.013,-6.221 4.013,-10.267c0,-4.041 -1.338,-7.462 -4.013,-10.262c-2.675,-2.8 -5.921,-4.204 -9.742,-4.204c-3.87,0 -7.154,1.404 -9.841,4.204c-2.692,2.8 -4.038,6.221 -4.038,10.262Zm-6.937,0c0,-2.812 0.512,-5.466 1.546,-7.962c1.029,-2.496 2.537,-4.717 4.516,-6.671c1.975,-1.946 4.221,-3.433 6.73,-4.45c2.508,-1.017 5.183,-1.525 8.024,-1.525c2.788,0 5.43,0.517 7.925,1.546c2.492,1.033 4.759,2.537 6.792,4.516c1.979,1.925 3.483,4.13 4.517,6.626c1.029,2.491 1.546,5.133 1.546,7.92c0,2.788 -0.517,5.417 -1.546,7.884c-1.034,2.466 -2.538,4.662 -4.517,6.583c-2.033,2.004 -4.312,3.538 -6.837,4.596c-2.521,1.058 -5.146,1.591 -7.88,1.591c-2.812,0 -5.483,-0.525 -8.004,-1.57c-2.525,-1.042 -4.775,-2.542 -6.75,-4.492c-1.979,-2.004 -3.487,-4.233 -4.516,-6.688c-1.034,-2.454 -1.546,-5.087 -1.546,-7.904Z" style="fill:#fff;fill-rule:nonzero;"/><path d="M251.554,481.358l0,-22.537c0,-3.871 -0.783,-6.75 -2.341,-8.629c-1.563,-1.884 -3.959,-2.825 -7.192,-2.825c-1.754,0 -3.379,0.358 -4.867,1.066c-1.496,0.713 -2.758,1.721 -3.787,3.034c-0.75,1.004 -1.292,2.171 -1.629,3.512c-0.334,1.338 -0.5,3.538 -0.5,6.6l0,19.779l-6.317,0l0,-22.537c0,-3.871 -0.779,-6.75 -2.342,-8.629c-1.558,-1.884 -3.954,-2.825 -7.187,-2.825c-1.759,0 -3.396,0.358 -4.913,1.066c-1.521,0.713 -2.796,1.721 -3.825,3.034c-0.725,0.975 -1.25,2.104 -1.566,3.383c-0.321,1.283 -0.484,3.529 -0.484,6.729l0,19.779l-6.312,0l0,-38.254l6.4,0l0,5.896c1.583,-2.454 3.479,-4.275 5.683,-5.475c2.2,-1.2 4.737,-1.8 7.608,-1.8c3.092,0 5.725,0.663 7.9,1.983c2.175,1.33 3.817,3.259 4.934,5.792c1.646,-2.621 3.587,-4.571 5.829,-5.85c2.25,-1.283 4.846,-1.925 7.8,-1.925c4.262,0 7.596,1.2 9.991,3.596c2.396,2.396 3.596,5.725 3.596,9.991l0,26.046l-6.479,0Z" style="fill:#fff;fill-rule:nonzero;"/><path d="M277.221,462.333c0,4.292 1.183,7.738 3.55,10.33c2.371,2.591 5.508,3.883 9.408,3.883c3.817,0 6.821,-1.184 9.009,-3.55c2.191,-2.371 3.283,-5.659 3.283,-9.863c0,-4.712 -1.092,-8.408 -3.283,-11.083c-2.188,-2.675 -5.234,-4.012 -9.13,-4.012c-3.987,0 -7.125,1.266 -9.408,3.808c-2.288,2.533 -3.429,6.033 -3.429,10.487Zm-6.313,37.667l0,-56.896l6.225,0l0,7.192c1.484,-2.763 3.429,-4.875 5.859,-6.354c2.425,-1.475 5.125,-2.217 8.108,-2.217c5.517,0 9.95,1.883 13.296,5.642c3.342,3.766 5.012,8.754 5.012,14.966c0,6.33 -1.633,11.354 -4.908,15.071c-3.279,3.721 -7.658,5.583 -13.15,5.583c-3.15,0 -5.896,-0.72 -8.233,-2.149c-2.346,-1.438 -4.25,-3.58 -5.73,-6.417l0,25.579l-6.479,0Z" style="fill:#fff;fill-rule:nonzero;"/><path d="M326.008,443.104l0,18.817c0,5.487 0.813,9.325 2.446,11.512c1.629,2.192 4.379,3.284 8.254,3.284c3.875,0 6.613,-1.08 8.217,-3.242c1.604,-2.158 2.404,-6.008 2.404,-11.554l0,-18.817l6.688,0l0,22.325c0,5.767 -1.475,10.138 -4.429,13.108c-2.955,2.967 -7.305,4.45 -13.046,4.45c-5.684,0 -10.004,-1.491 -12.959,-4.475c-2.954,-2.979 -4.433,-7.341 -4.433,-13.083l0,-22.325l6.858,0Z" style="fill:#fff;fill-rule:nonzero;"/><path d="M367.688,448.5l-7.026,0l0,-5.396l7.026,0l0,-15.425l6.687,0l0,15.425l7.025,0l0,5.396l-7.025,0l0,32.858l-6.687,0l0,-32.858Z" style="fill:#fff;fill-rule:nonzero;"/><path d="M389.175,481.358l0,-38.254l6.604,0l0,38.254l-6.604,0Zm-1.546,-56.691c0,-1.304 0.467,-2.43 1.4,-3.367c0.929,-0.929 2.071,-1.396 3.404,-1.396c1.313,0 2.434,0.475 3.367,1.417c0.933,0.95 1.404,2.091 1.404,3.433c0,1.308 -0.462,2.425 -1.379,3.342c-0.921,0.921 -2.054,1.379 -3.392,1.379c-1.333,0 -2.475,-0.458 -3.404,-1.379c-0.933,-0.917 -1.4,-2.063 -1.4,-3.429Z" style="fill:#fff;fill-rule:nonzero;"/><path d="M409.575,481.358l0,-38.254l6.4,0l0,5.896c1.646,-2.454 3.621,-4.275 5.938,-5.475c2.308,-1.2 4.987,-1.8 8.024,-1.8c4.517,0 8.038,1.2 10.58,3.596c2.533,2.396 3.804,5.725 3.804,9.991l0,26.046l-6.692,0l0,-22.537c0,-3.871 -0.817,-6.75 -2.446,-8.629c-1.629,-1.884 -4.146,-2.825 -7.545,-2.825c-1.95,0 -3.73,0.358 -5.33,1.066c-1.604,0.713 -2.937,1.721 -3.991,3.034c-0.813,1.004 -1.388,2.145 -1.738,3.429c-0.35,1.283 -0.525,3.512 -0.525,6.683l0,19.779l-6.479,0Z" style="fill:#fff;fill-rule:nonzero;"/><path d="M486.546,462.333c0,-4.287 -1.175,-7.746 -3.513,-10.366c-2.346,-2.617 -5.425,-3.929 -9.241,-3.929c-3.93,0 -6.996,1.216 -9.196,3.637c-2.2,2.425 -3.304,5.812 -3.304,10.158c0,4.625 1.108,8.196 3.325,10.7c2.212,2.513 5.358,3.767 9.429,3.767c3.9,0 6.954,-1.233 9.175,-3.7c2.212,-2.471 3.325,-5.887 3.325,-10.267Zm6.35,-19.229l0,37.583c0,4.155 -0.275,7.109 -0.833,8.863c-0.559,1.754 -1.48,3.329 -2.759,4.725c-1.787,1.921 -3.971,3.358 -6.546,4.304c-2.579,0.95 -5.537,1.421 -8.883,1.421c-5.796,0 -10.317,-1.321 -13.563,-3.971c-3.25,-2.65 -4.941,-6.396 -5.083,-11.246l7.359,0l0,0.505c0,2.866 0.991,5.087 2.966,6.645c1.979,1.563 4.783,2.342 8.404,2.342c2.621,0 4.859,-0.425 6.709,-1.275c1.858,-0.854 3.27,-2.113 4.245,-3.783c0.588,-0.946 1.005,-2.05 1.255,-3.305c0.25,-1.249 0.379,-3.049 0.379,-5.391l0,-3.008l0,-3.434c-1.479,2.738 -3.417,4.834 -5.813,6.296c-2.4,1.462 -5.087,2.196 -8.07,2.196c-5.492,0 -9.913,-1.871 -13.271,-5.604c-3.363,-3.738 -5.038,-8.696 -5.038,-14.879c0,-6.246 1.629,-11.2 4.892,-14.867c3.258,-3.663 7.621,-5.496 13.083,-5.496c3.175,0 5.963,0.721 8.358,2.15c2.396,1.438 4.296,3.55 5.688,6.337l0,-7.108l6.521,0Z" style="fill:#fff;fill-rule:nonzero;"/><rect x="30.779" y="460.621" width="57.379" height="3.354" style="fill:#fff;fill-rule:nonzero;"/><rect x="512.683" y="460.621" width="57.375" height="3.354" style="fill:#fff;fill-rule:nonzero;"/><path d="M321.104,287.187c1.421,-6.483 7.288,-11.862 15.109,-14.312c13.791,-4.304 -2.934,10.775 5.9,13.467c28.529,-1.25 51.27,-1.809 56.179,-4.35c4.025,-2.092 -21.83,-4.888 -25.946,-7.409c-8.604,-5.241 -19.633,-15.154 -30.442,-13.741c-10.817,1.408 -53.579,18.333 -97.296,18.333c-43.708,0 -47.937,-2.821 -60.162,-11.758c-12.217,-8.93 -23.025,-30.554 -29.138,-50.767c-6.1,-20.192 -7.512,-28.2 -14.1,-33.354c-6.575,-5.175 -50.275,-22.525 -69.283,-37.029c-14.467,-11.021 -22.692,-19.484 -26.933,-26.717c-4.217,-7.233 -4.638,-11.817 -9.538,-23.312c-11.341,44.708 20.921,66.404 43.904,82.52c15.334,10.763 29.784,16.467 34.355,18.113c39.991,14.421 36.595,54.296 24.687,63.971c-11.929,9.666 -19.288,7.987 -31.017,7.525c-11.766,-0.471 -30.096,-5.175 -44.666,-4.705c-14.563,0.471 -36.188,11.488 -46.054,25.596c27.354,0.059 130.291,0.059 178.137,-0.216c25.329,-0.154 79.858,-0.142 126.304,-1.855Z" style="fill:#fff;fill-rule:nonzero;"/><path d="M32.192,88.087c-7.359,-6.224 -24.238,-18.962 -29.196,-4.824c-3.888,11.05 -8.5,38.212 18.141,83.174c16.559,27.921 75.388,66.617 66.021,89.601c-0.008,0.008 20.263,-3.576 28.742,-14.309c6.117,-7.758 6.146,-20.95 -3.629,-26.137c-9.767,-5.175 -58.067,-36.538 -69.809,-51.088c-25.112,-31.071 -28.145,-75.137 -10.27,-76.417Z" style="fill:#fff;fill-rule:nonzero;"/><path d="M204.254,258.529c-12.196,-12.991 -21.104,-26.975 -26.479,-44.358c-4.683,-15.163 -5.567,-52.196 -7.771,-60.533c0,0 -30.1,-50.409 -39.425,-65.759c-9.312,-15.329 -18.712,-44.229 -19.175,-54.354c-0.462,-10.117 2.204,-28.625 -2.1,-30.887c-22.733,-0.113 -48.429,69.508 -39.879,123.108c7.967,-42.321 25.258,-51.592 30.908,-48.513c3.229,1.759 49.325,65.596 56.654,89.392c7.338,23.804 4.551,74.633 47.267,91.904Z" style="fill:#fff;fill-rule:nonzero;"/><path d="M79.737,135.063c5.642,10.462 41.125,18.262 67.071,39.35c1.842,-13.276 -14.946,-32.271 -28.354,-52.301c-9.5,-14.183 -13.079,-21.229 -19.421,-26.95c-7.071,-6.395 -19.296,28.896 -19.296,39.901Z" style="fill:#fff;fill-rule:nonzero;"/></g></svg>