<?xml version="1.0" standalone="no"?>
<!DOCTYPE svg PUBLIC "-//W3C//DTD SVG 20010904//EN"
 "http://www.w3.org/TR/2001/REC-SVG-20010904/DTD/svg10.dtd">
<svg version="1.0" xmlns="http://www.w3.org/2000/svg"
 width="2048.000000pt" height="1462.000000pt" viewBox="0 0 2048.000000 1462.000000"
 preserveAspectRatio="xMidYMid meet">
<metadata>
Created by potrace 1.13, written by Peter Selinger 2001-2015
</metadata>
<g transform="translate(0.000000,1462.000000) scale(0.100000,-0.100000)"
fill="#000000" stroke="none">
<path d="M11353 13480 c-4 -4 -28 -12 -53 -19 -64 -19 -156 -67 -192 -101 -17
-17 -35 -30 -41 -30 -5 0 -7 -7 -3 -15 3 -9 0 -15 -8 -15 -16 0 -46 -58 -46
-89 0 -12 -4 -21 -10 -21 -13 0 -13 -105 0 -150 17 -59 87 -122 170 -153 44
-16 172 -19 187 -4 3 4 14 7 24 7 29 0 96 41 108 67 6 13 16 21 22 18 26 -17
71 69 65 125 -4 49 -15 70 -36 70 -10 0 -23 7 -30 15 -29 35 -42 -7 -16 -54
18 -32 10 -59 -28 -99 -54 -58 -112 -83 -188 -83 -81 0 -131 20 -176 69 -31
34 -34 42 -34 100 1 104 60 186 172 238 101 47 152 61 236 62 106 1 160 -11
252 -57 24 -11 50 -21 58 -21 8 0 14 -7 14 -15 0 -8 5 -15 11 -15 27 0 167
-172 195 -240 42 -104 46 -121 45 -218 -1 -56 -5 -112 -10 -125 -5 -14 -7 -28
-4 -31 3 -3 -2 -17 -11 -30 -9 -14 -16 -36 -16 -49 0 -14 -7 -30 -15 -37 -8
-7 -15 -18 -15 -24 0 -11 -41 -94 -71 -145 -31 -52 -193 -220 -233 -241 -15
-8 -38 -27 -51 -42 -13 -15 -26 -28 -30 -28 -3 0 -47 -24 -98 -53 -116 -67
-176 -98 -252 -126 -33 -12 -67 -26 -76 -31 -9 -5 -34 -12 -55 -15 -22 -4 -46
-9 -54 -11 -40 -13 -334 -18 -530 -9 -41 2 -133 6 -205 9 -144 7 -202 14 -210
26 -3 4 12 20 32 36 48 37 103 95 103 110 0 7 6 14 14 17 25 10 132 248 118
262 -3 3 -19 -11 -36 -30 -28 -31 -39 -35 -111 -45 -44 -6 -93 -14 -110 -19
-86 -25 -181 -55 -190 -60 -5 -3 -14 -6 -20 -7 -44 -9 -131 -36 -139 -44 -5
-5 -20 -10 -33 -10 -25 0 -29 -1 -120 -48 -34 -18 -69 -32 -78 -32 -9 0 -42
-12 -73 -26 -31 -15 -91 -42 -132 -61 -41 -19 -82 -39 -90 -44 -8 -5 -25 -13
-38 -19 -69 -30 -213 -106 -457 -240 -33 -19 -76 -42 -95 -52 -19 -10 -51 -32
-72 -48 -21 -17 -43 -28 -48 -25 -6 3 -10 1 -10 -4 0 -6 -6 -11 -13 -11 -8 0
-27 -11 -43 -25 -16 -14 -35 -25 -41 -25 -7 0 -13 -4 -13 -9 0 -5 -8 -12 -17
-15 -21 -7 -36 -16 -118 -71 -33 -21 -70 -48 -82 -60 -33 -31 -51 -45 -61 -45
-12 0 -115 -93 -192 -173 -92 -95 -92 -95 -127 -151 -61 -96 -74 -125 -67
-151 5 -20 3 -24 -9 -20 -10 4 -17 -3 -22 -22 -9 -31 -9 -31 0 -55 5 -13 2
-15 -13 -11 -18 4 -21 -1 -27 -41 -4 -26 -13 -46 -20 -46 -6 0 -35 25 -63 55
-28 30 -56 55 -62 55 -6 0 -8 5 -5 11 4 6 -2 13 -14 16 -11 3 -23 13 -26 22
-3 9 -23 36 -46 61 -22 25 -61 69 -87 98 -26 30 -55 61 -64 70 -10 9 -18 21
-18 27 0 5 -18 28 -40 50 -21 22 -39 44 -40 48 0 5 -18 45 -40 89 -22 45 -40
87 -40 95 0 7 -7 13 -16 13 -10 0 -14 6 -10 15 5 13 -12 65 -50 152 -8 17 -14
38 -14 47 0 9 -5 16 -10 16 -6 0 -8 10 -4 24 3 13 1 27 -4 30 -6 3 -14 35 -17
71 -4 36 -10 67 -14 69 -8 5 -4 372 4 412 3 16 10 43 16 61 9 30 28 124 34
168 1 11 7 31 13 45 12 27 40 190 40 230 -1 43 -18 100 -37 119 -19 19 -108
34 -117 20 -3 -5 -16 -9 -28 -9 -13 0 -40 -11 -60 -25 -20 -14 -49 -31 -64
-40 -38 -20 -142 -119 -142 -134 0 -8 -6 -11 -15 -7 -9 3 -18 -1 -21 -8 -3 -8
-23 -26 -44 -40 -41 -27 -170 -152 -170 -165 0 -4 -18 -27 -40 -50 -22 -23
-40 -46 -40 -51 0 -5 -10 -18 -21 -29 -23 -22 -39 -47 -65 -101 -9 -19 -22
-38 -29 -43 -8 -4 -16 -21 -20 -38 -4 -17 -13 -33 -21 -36 -8 -3 -14 -13 -14
-23 0 -11 -5 -22 -10 -25 -6 -3 -19 -27 -31 -53 -11 -26 -27 -60 -35 -76 -8
-16 -14 -33 -14 -39 0 -5 -6 -23 -14 -40 -8 -18 -19 -45 -24 -62 -6 -16 -19
-53 -30 -81 -15 -41 -41 -131 -47 -164 0 -3 -6 -27 -13 -55 -30 -127 -53 -417
-33 -429 5 -3 9 -32 9 -63 1 -99 40 -318 59 -332 5 -3 9 -17 10 -31 1 -14 6
-45 13 -70 6 -25 14 -57 17 -72 3 -15 11 -33 19 -39 8 -6 14 -20 14 -29 0 -22
30 -88 70 -155 16 -27 34 -61 40 -74 6 -14 16 -21 25 -17 10 4 14 -1 13 -17
-1 -21 63 -115 136 -197 17 -20 40 -48 51 -64 55 -77 80 -106 92 -106 7 0 13
-6 13 -14 0 -34 239 -227 299 -243 27 -7 73 7 78 23 2 6 -30 34 -71 63 -42 28
-81 57 -88 64 -7 7 -40 35 -73 63 -33 29 -73 70 -90 93 -16 22 -37 43 -46 46
-8 3 -23 21 -32 40 -9 20 -24 38 -32 41 -8 3 -27 25 -42 47 -48 72 -140 192
-157 206 -9 7 -16 20 -16 27 0 8 -5 14 -10 14 -6 0 -15 12 -20 28 -6 15 -14
36 -19 47 -5 11 -21 49 -36 85 -15 36 -33 79 -41 95 -7 17 -18 56 -24 88 -6
31 -16 57 -21 57 -5 0 -9 16 -9 36 0 19 -5 44 -10 54 -6 10 -11 32 -11 47 -1
15 -6 55 -11 88 -18 118 -26 295 -16 380 4 33 3 67 -2 75 -6 9 -4 20 4 30 7 8
16 42 20 74 4 33 12 66 17 73 6 7 9 22 6 33 -3 11 -1 22 3 25 5 3 11 23 15 45
4 22 11 42 16 46 5 3 9 18 9 33 0 15 4 31 9 37 5 5 16 34 26 64 9 30 27 74 40
96 12 23 25 58 29 77 4 19 13 38 21 41 8 3 15 12 15 20 0 8 19 44 43 80 23 36
57 89 74 118 18 29 44 66 58 82 14 16 25 32 25 35 1 3 28 35 60 70 33 36 60
68 60 71 0 4 11 12 24 18 13 6 32 24 42 41 10 17 23 31 29 31 13 0 58 35 106
83 20 20 40 37 43 37 3 0 16 10 30 23 43 40 56 48 79 53 12 2 27 10 32 17 14
19 53 27 81 17 22 -9 24 -16 24 -68 0 -32 5 -63 12 -70 9 -9 8 -12 -4 -12 -17
0 -32 -26 -23 -40 5 -8 -18 -110 -33 -150 -9 -25 -31 -129 -47 -223 -14 -85
-14 -346 -1 -422 3 -16 9 -57 12 -90 4 -33 10 -65 15 -71 5 -5 11 -26 13 -45
11 -75 124 -362 150 -381 5 -3 11 -13 12 -22 1 -8 14 -27 28 -43 14 -15 26
-33 26 -38 0 -6 13 -24 28 -41 15 -16 35 -40 44 -54 38 -61 385 -420 406 -420
6 0 12 -6 12 -14 0 -8 9 -18 20 -21 11 -4 35 -21 53 -39 17 -18 46 -40 62 -49
17 -8 39 -24 49 -36 11 -12 25 -21 32 -21 7 0 14 -3 16 -7 4 -9 74 -43 88 -43
6 0 10 6 10 14 0 12 -19 31 -80 79 -15 12 -115 94 -136 112 -7 6 -26 21 -43
34 -34 25 -42 65 -15 75 9 3 14 13 11 20 -3 8 -3 16 1 18 4 2 32 52 62 112 30
60 65 120 77 135 13 14 23 31 23 38 0 9 78 99 117 135 25 22 105 89 148 123
28 22 52 42 55 45 3 3 26 18 53 33 26 15 47 32 47 37 0 6 7 10 15 10 9 0 39
17 68 38 47 35 72 51 143 90 13 7 24 17 24 23 0 5 9 9 20 9 11 0 20 3 20 8 0
4 15 13 33 21 17 7 49 24 69 37 21 13 68 40 105 60 38 20 75 43 84 50 8 8 23
14 31 14 9 0 18 7 22 15 3 8 9 14 13 13 9 -3 76 23 83 32 3 4 94 50 203 104
108 54 197 102 197 107 0 5 12 9 26 9 14 0 38 6 52 14 15 7 41 19 57 26 17 7
39 17 50 21 11 5 34 13 50 18 17 5 68 23 115 41 47 18 97 34 113 37 15 3 30 9
33 14 3 5 14 9 26 9 11 0 50 11 87 24 36 13 92 29 124 36 32 6 70 18 85 26 19
10 29 10 37 2 7 -7 6 -12 -3 -15 -24 -9 -82 -95 -78 -117 2 -11 1 -15 -1 -8
-7 20 -17 14 -43 -28 -14 -22 -33 -40 -42 -40 -10 0 -18 -4 -18 -9 0 -5 -12
-16 -27 -23 -16 -8 -37 -20 -48 -26 -11 -7 -33 -16 -48 -22 -23 -8 -28 -15
-25 -38 3 -25 6 -27 53 -28 28 -1 88 -7 135 -15 47 -7 130 -14 185 -16 55 -1
154 -4 220 -7 265 -12 473 -8 548 10 127 30 314 107 374 154 14 11 34 20 44
20 9 0 19 3 21 8 5 10 95 72 106 72 5 0 34 22 63 50 30 27 57 50 62 50 4 0 42
36 85 81 78 82 132 157 132 184 0 8 11 25 25 37 15 13 27 36 31 64 3 24 10 44
14 44 9 0 26 43 36 90 3 19 12 42 18 52 8 13 8 23 -2 38 -17 27 -15 41 4 33
14 -5 15 3 12 61 -1 36 -1 66 2 66 19 -1 33 -24 36 -60 2 -23 7 -47 12 -54 4
-6 7 -20 8 -31 2 -63 5 -76 14 -70 6 3 5 -6 -2 -21 -8 -17 -9 -29 -3 -31 13
-4 9 -141 -5 -158 -6 -7 -13 -37 -17 -66 -3 -30 -12 -64 -20 -75 -7 -12 -15
-30 -17 -40 -5 -24 -57 -137 -66 -144 -4 -3 -13 -22 -19 -42 -7 -21 -16 -38
-20 -38 -3 0 -14 -15 -24 -33 -10 -18 -29 -46 -43 -62 -13 -15 -24 -34 -24
-40 0 -7 -7 -16 -16 -19 -8 -3 -12 -10 -9 -16 3 -5 1 -10 -4 -10 -6 0 -11 -5
-11 -12 0 -7 -14 -26 -30 -43 -27 -28 -29 -33 -16 -50 14 -19 15 -18 50 15 20
19 36 40 36 46 0 7 11 19 25 28 14 9 25 23 25 32 0 9 14 29 30 46 17 16 30 38
30 48 0 11 6 23 14 27 8 4 21 24 30 43 8 19 20 42 25 50 28 45 61 122 55 131
-3 6 0 16 8 22 15 13 27 48 53 158 24 102 5 369 -26 369 -5 0 -9 13 -9 29 0
34 -45 141 -60 141 -5 0 -10 9 -10 20 0 11 -9 29 -19 39 -10 10 -22 28 -26 40
-3 11 -12 27 -19 34 -8 7 -23 32 -35 56 -12 23 -28 44 -36 48 -8 3 -15 9 -15
15 0 20 -68 92 -130 137 -74 54 -168 98 -220 104 -20 2 -40 6 -45 9 -14 8
-223 6 -232 -2z"/>
<path d="M13245 12803 c-11 -2 -39 -13 -61 -25 -123 -60 -74 -192 129 -349 34
-26 127 -147 127 -164 0 -7 7 -15 15 -19 8 -3 15 -12 15 -21 0 -8 4 -23 9 -33
19 -37 31 -71 57 -162 25 -85 27 -111 27 -241 0 -81 -4 -152 -7 -158 -4 -6 -6
-21 -5 -34 1 -12 0 -29 -3 -37 -3 -8 -11 -35 -18 -60 -43 -153 -97 -257 -194
-371 -17 -19 -47 -55 -66 -78 -49 -61 -106 -121 -113 -121 -3 0 -26 -19 -50
-42 -25 -24 -67 -61 -95 -83 -27 -22 -48 -43 -45 -47 2 -5 -2 -8 -9 -8 -21 0
-76 -52 -87 -83 -18 -47 -13 -49 37 -12 26 20 96 72 156 116 100 73 216 183
338 321 54 61 118 152 118 169 0 6 9 22 20 36 11 14 20 35 20 47 0 12 4 26 9
31 32 35 70 244 68 373 -1 50 1 92 5 92 19 0 -24 204 -60 280 -15 30 -25 61
-24 68 4 15 -35 99 -49 107 -4 3 -17 26 -29 51 -25 58 -60 99 -113 135 -54 36
-135 116 -153 152 -22 41 -14 67 26 88 42 23 93 24 150 4 23 -8 52 -15 64 -15
22 0 108 -40 135 -63 9 -8 36 -24 61 -37 116 -59 140 -74 186 -112 27 -22 58
-53 69 -69 11 -16 28 -31 38 -35 9 -3 17 -9 17 -14 0 -12 48 -60 60 -60 6 0
10 -4 10 -10 0 -5 13 -24 29 -42 150 -168 254 -308 298 -399 18 -37 37 -70 42
-74 6 -3 11 -16 11 -28 0 -12 9 -37 20 -55 11 -18 20 -39 20 -47 0 -8 9 -30
20 -50 11 -19 32 -71 46 -115 15 -44 31 -80 35 -80 5 0 9 -17 9 -38 0 -21 11
-76 24 -122 13 -47 29 -134 35 -195 6 -60 14 -141 18 -180 4 -38 6 -87 4 -108
-2 -21 2 -43 8 -50 8 -10 9 -52 0 -52 -1 0 -3 -9 -4 -20 -15 -114 -30 -194
-51 -270 -14 -49 -29 -108 -34 -130 -5 -22 -16 -57 -24 -77 -9 -21 -16 -45
-16 -54 0 -9 -9 -29 -21 -45 -11 -16 -17 -29 -14 -29 4 0 -7 -16 -24 -35 -17
-19 -41 -53 -53 -75 -13 -22 -29 -40 -35 -40 -7 0 -13 -5 -13 -11 0 -15 -58
-86 -128 -159 -29 -30 -50 -60 -47 -68 2 -7 0 -10 -5 -7 -10 6 -79 -61 -80
-77 0 -4 -9 -10 -20 -13 -11 -3 -20 -12 -20 -19 0 -30 -205 -144 -315 -176
-75 -21 -135 -53 -136 -72 -1 -10 -2 -24 -3 -30 -1 -17 51 -20 66 -4 7 7 26
16 41 20 24 6 28 4 26 -11 -3 -18 17 -64 69 -158 48 -87 57 -100 70 -108 6 -4
12 -20 12 -35 0 -15 16 -56 35 -92 19 -35 35 -71 35 -80 0 -9 4 -20 9 -25 4
-6 20 -44 35 -85 15 -41 35 -88 44 -105 9 -16 16 -32 15 -35 0 -3 3 -15 8 -28
5 -13 9 -30 9 -37 0 -8 6 -18 13 -22 7 -4 18 -26 24 -48 11 -37 30 -92 99
-270 14 -38 33 -92 41 -120 9 -27 19 -54 24 -60 5 -5 9 -19 9 -32 0 -12 9 -45
20 -73 11 -28 20 -66 20 -85 0 -19 4 -35 10 -35 5 0 7 -7 3 -16 -3 -8 -1 -25
5 -37 10 -21 15 -48 27 -152 3 -27 8 -57 11 -65 3 -8 8 -46 10 -85 3 -38 9
-110 15 -159 8 -71 7 -91 -3 -98 -14 -9 -54 31 -79 80 -8 15 -31 52 -52 82
-22 30 -43 65 -48 78 -5 12 -17 25 -26 29 -10 4 -23 13 -29 21 -8 12 -13 10
-27 -12 -17 -25 -16 -27 6 -63 13 -21 39 -66 57 -100 17 -35 35 -63 39 -63 3
0 7 -12 8 -27 1 -23 18 -86 41 -153 20 -58 32 -327 20 -460 -5 -65 -50 -246
-69 -282 -6 -11 -19 -45 -30 -75 -10 -31 -35 -79 -54 -109 -19 -29 -35 -57
-35 -62 0 -6 -6 -17 -13 -24 -7 -7 -23 -27 -35 -44 -24 -34 -71 -92 -87 -105
-71 -61 -113 -93 -132 -102 -13 -5 -23 -14 -23 -19 0 -4 -6 -8 -14 -8 -7 0
-40 -12 -72 -26 -92 -40 -97 -42 -123 -50 -13 -3 -40 -13 -59 -21 l-35 -14 29
-15 c22 -12 34 -13 52 -4 13 5 27 8 32 5 19 -11 156 35 239 80 29 17 65 36 80
44 39 21 162 151 173 183 6 15 16 28 22 28 7 0 18 10 24 23 14 26 35 60 42 67
11 11 58 109 80 165 12 33 30 80 40 105 10 25 21 72 25 105 4 33 10 64 13 69
21 36 20 408 -1 466 -8 22 -15 108 -9 114 2 3 18 -6 34 -19 35 -29 37 -30 64
-7 26 22 34 80 23 172 -4 36 -10 103 -13 150 -4 47 -11 110 -15 140 -5 30 -14
96 -21 145 -7 50 -18 113 -26 142 -8 28 -14 60 -14 70 0 10 -5 24 -12 31 -6 6
-13 28 -15 49 -2 21 -11 48 -19 60 -7 12 -14 34 -14 48 0 14 -13 54 -28 88
-16 34 -37 89 -46 122 -10 33 -26 78 -36 100 -11 22 -22 52 -25 68 -4 15 -14
27 -22 27 -9 0 -13 6 -9 15 5 14 -15 75 -48 150 -27 60 -49 111 -72 174 -14
36 -28 69 -33 75 -5 6 -18 31 -28 56 -24 61 -123 240 -131 240 -4 0 -13 15
-21 33 -8 17 -17 34 -20 37 -11 9 -51 87 -51 99 0 6 8 11 18 11 9 0 31 7 47
16 17 9 53 24 81 35 61 23 128 72 216 159 96 95 239 257 296 335 16 22 36 46
45 54 9 7 17 19 17 25 0 6 14 27 30 46 16 19 30 40 30 46 0 6 7 17 15 24 8 7
15 25 15 41 0 16 5 29 10 29 6 0 10 9 10 19 0 11 4 22 8 25 5 3 14 35 22 71 8
36 17 68 22 71 4 3 8 16 8 30 0 14 4 34 10 44 5 10 10 40 11 67 1 26 5 53 9
58 15 20 23 92 24 220 1 153 -9 256 -26 266 -9 6 -10 11 -2 19 18 18 -3 184
-28 216 -4 6 -6 18 -3 26 3 8 1 28 -5 44 -7 16 -14 49 -16 73 -2 24 -13 64
-23 90 -19 49 -36 95 -55 149 -6 17 -14 32 -18 32 -5 0 -8 6 -8 13 0 17 -78
199 -91 212 -5 5 -9 17 -9 27 0 10 -4 18 -8 18 -4 0 -13 12 -20 28 -21 47 -43
82 -50 82 -4 0 -16 17 -27 38 -10 20 -31 51 -47 67 -15 17 -49 56 -74 88 -26
31 -50 57 -55 57 -5 0 -9 6 -9 13 0 8 -34 47 -76 88 -92 89 -102 99 -134 135
-14 16 -43 43 -65 60 -43 33 -195 119 -195 109 0 -3 -9 4 -20 15 -11 11 -25
20 -30 20 -6 0 -28 11 -49 25 -73 46 -263 84 -336 68z"/>
<path d="M11975 11760 c22 -21 46 -39 53 -40 7 0 28 -11 45 -23 18 -13 61 -40
97 -60 84 -47 226 -138 266 -171 18 -14 43 -32 56 -39 72 -37 220 -225 267
-337 25 -61 53 -189 44 -204 -3 -5 0 -14 8 -20 8 -6 14 -30 14 -56 1 -42 26
-90 47 -90 12 0 0 232 -12 244 -5 5 -10 25 -10 42 0 18 -6 39 -13 46 -8 7 -14
27 -15 43 -1 34 -62 151 -92 177 -11 9 -20 24 -20 33 0 9 -9 19 -20 22 -11 3
-20 9 -20 14 0 11 -116 122 -161 154 -19 13 -38 28 -44 32 -36 30 -169 113
-180 113 -7 0 -15 3 -17 8 -3 8 -126 68 -280 136 -54 24 -57 20 -13 -24z"/>
<path d="M12787 10553 c-4 -3 -7 -21 -7 -39 0 -18 -4 -36 -10 -39 -6 -4 -10
-77 -10 -185 0 -108 4 -181 10 -185 6 -3 10 -24 10 -45 0 -21 5 -42 11 -45 6
-4 8 -14 4 -23 -3 -8 0 -19 6 -23 6 -4 13 -24 14 -44 2 -44 100 -240 129 -261
11 -8 17 -14 12 -14 -27 0 234 -266 302 -307 47 -29 83 -29 101 -1 12 20 12
23 -4 33 -55 32 -275 238 -275 257 0 4 -4 8 -8 8 -9 0 -100 140 -123 190 -36
79 -36 77 -99 281 -4 14 -8 117 -9 229 -2 203 -5 219 -37 220 -6 0 -14 -3 -17
-7z"/>
<path d="M8020 10265 c0 -8 -5 -15 -11 -15 -6 0 -8 -13 -5 -32 3 -22 -1 -40
-15 -59 -10 -15 -19 -33 -19 -39 0 -12 -59 -130 -70 -140 -3 -3 -19 -25 -35
-50 -61 -91 -225 -269 -323 -349 -144 -118 -305 -203 -417 -221 -85 -14 -244
-19 -251 -8 -3 4 -17 7 -32 7 -15 -1 -39 2 -53 6 -20 5 -28 2 -33 -11 -8 -20
6 -32 47 -41 15 -3 29 -9 32 -13 2 -4 -15 -34 -39 -66 -47 -65 -76 -93 -76
-75 0 6 5 11 10 11 6 0 10 6 10 14 0 8 6 17 13 20 10 5 10 7 0 12 -18 8 -16
25 2 18 8 -4 15 -1 15 5 0 6 -13 11 -29 11 -23 0 -34 -9 -62 -52 -18 -29 -42
-74 -54 -99 -11 -25 -27 -53 -36 -62 -10 -9 -34 -47 -55 -84 -21 -37 -50 -86
-66 -107 -15 -21 -28 -44 -28 -50 0 -6 -19 -38 -42 -71 -36 -51 -70 -111 -133
-235 -7 -14 -22 -44 -34 -66 -11 -23 -21 -51 -21 -63 0 -12 -6 -32 -14 -44 -8
-12 -22 -58 -31 -101 -9 -44 -18 -83 -21 -87 -9 -16 -19 -230 -17 -389 2 -151
10 -254 27 -320 4 -14 11 -51 17 -83 15 -87 42 -126 88 -127 20 0 22 -3 16
-27 -4 -16 -6 -45 -6 -65 1 -21 -2 -38 -6 -38 -11 0 -16 -80 -16 -255 0 -180
3 -234 14 -241 5 -3 9 -20 9 -38 0 -60 45 -190 99 -286 5 -8 16 -32 25 -53 9
-20 33 -56 55 -80 21 -23 40 -51 42 -61 2 -10 13 -24 24 -30 11 -6 22 -13 25
-16 21 -24 184 -160 191 -160 4 0 35 -16 69 -36 42 -24 60 -40 56 -50 -4 -9 3
-18 17 -24 12 -5 16 -9 9 -9 -18 -1 -272 -255 -272 -272 0 -8 -9 -25 -20 -39
-11 -14 -20 -35 -20 -46 0 -12 -7 -27 -15 -34 -8 -7 -15 -18 -15 -26 0 -7 -7
-33 -15 -58 -50 -146 -47 -593 5 -776 38 -134 77 -227 124 -295 12 -16 28 -46
37 -65 24 -53 199 -231 256 -260 26 -13 61 -37 77 -52 16 -15 39 -31 50 -34
12 -4 28 -12 36 -19 20 -18 237 -125 252 -125 6 0 19 -6 27 -13 21 -17 82 -41
156 -61 33 -9 96 -28 139 -42 43 -14 95 -28 114 -30 20 -3 41 -8 46 -13 17
-13 243 -101 260 -101 8 0 17 -4 20 -8 3 -4 44 -21 92 -37 47 -16 111 -44 141
-62 31 -18 61 -33 67 -33 16 0 123 -110 135 -140 6 -14 15 -32 20 -40 62 -102
92 -270 80 -450 -3 -47 -1 -90 3 -96 5 -7 3 -14 -6 -17 -9 -4 -17 -27 -21 -61
-4 -31 -13 -61 -21 -67 -8 -6 -14 -20 -14 -30 0 -10 -4 -20 -9 -23 -4 -3 -11
-19 -14 -35 -9 -44 -115 -94 -195 -92 -86 2 -95 6 -164 76 -44 45 -88 125
-109 200 -16 56 -19 246 -5 341 7 51 6 63 -9 78 -17 16 -18 16 -35 -1 -31 -34
-45 -122 -44 -276 2 -120 21 -213 50 -248 8 -8 14 -21 14 -27 0 -19 43 -84 83
-128 51 -55 127 -92 197 -95 66 -3 164 17 180 37 7 7 18 14 25 14 7 0 25 15
39 32 14 18 35 42 46 53 11 12 20 28 20 38 0 9 3 17 8 17 4 0 15 28 26 62 10
35 23 74 29 88 5 14 12 101 15 193 4 153 3 169 -14 188 -15 17 -16 22 -5 29
20 11 -8 108 -61 220 -32 65 -57 101 -110 153 -38 37 -75 67 -83 67 -7 0 -15
4 -17 8 -9 23 -133 78 -333 149 -38 13 -86 32 -105 40 -82 38 -254 97 -314
109 -22 4 -90 24 -150 45 -61 22 -117 39 -124 39 -8 0 -26 8 -40 18 -30 21
-105 59 -167 86 -22 10 -63 33 -92 52 -28 19 -54 34 -58 34 -10 0 -144 103
-191 147 -54 51 -136 161 -149 202 -3 12 -10 21 -14 21 -4 0 -15 19 -24 43
-10 23 -28 65 -41 92 -13 28 -29 79 -35 115 -7 36 -16 81 -21 100 -25 103 -31
446 -10 545 7 28 14 65 17 83 3 17 14 49 24 69 15 28 16 39 6 45 -9 6 -8 8 3
8 15 0 40 42 40 67 0 7 7 13 15 13 8 0 15 6 15 13 0 20 47 73 154 176 36 35
75 79 87 97 24 39 66 67 140 93 151 53 222 81 235 92 7 6 18 8 24 4 6 -4 18
-1 27 7 9 7 34 18 57 25 23 6 66 19 96 29 72 22 111 21 141 -3 32 -25 198 -83
344 -119 55 -14 120 -32 145 -40 25 -7 59 -16 75 -19 52 -8 128 -24 180 -36
28 -6 102 -12 166 -13 64 -1 129 -7 145 -13 89 -34 186 -57 245 -57 37 -1 65
-4 63 -7 -6 -10 90 -17 100 -7 6 4 23 8 38 8 46 0 32 18 -19 25 -27 4 -55 9
-63 12 -8 3 -24 7 -35 9 -20 3 -126 29 -180 44 -36 10 -85 27 -145 51 -25 10
-58 19 -72 21 -14 2 -33 9 -41 16 -9 7 -28 15 -43 16 -16 2 -30 8 -32 15 -2 6
-8 11 -14 11 -11 0 -111 48 -153 73 -35 21 -146 116 -241 206 -50 47 -102 95
-115 107 -26 23 -94 96 -148 159 -19 22 -48 47 -65 55 -64 31 -136 199 -142
330 -1 30 -6 66 -11 80 -9 23 -11 23 -16 5 -3 -11 -8 -41 -12 -67 -3 -26 -10
-50 -16 -53 -19 -12 2 -145 23 -145 4 0 5 -6 2 -14 -3 -7 6 -35 20 -61 15 -26
26 -54 26 -61 0 -8 9 -19 20 -26 11 -7 20 -18 20 -24 0 -7 7 -14 15 -18 8 -3
15 -12 15 -19 0 -24 175 -192 246 -237 32 -20 41 -44 13 -35 -12 4 -31 3 -43
-3 -11 -5 -73 -17 -136 -26 -229 -32 -355 -61 -447 -102 -29 -13 -53 -20 -53
-17 0 3 -6 1 -12 -5 -7 -5 -29 -13 -48 -17 -19 -4 -46 -13 -60 -20 -14 -8 -47
-24 -74 -36 -27 -12 -72 -38 -100 -56 -28 -18 -58 -36 -67 -38 -16 -5 -67 24
-183 105 -55 39 -79 60 -181 160 -74 72 -92 94 -101 123 -4 9 -10 17 -14 17
-6 0 -62 107 -106 205 -18 38 -42 157 -54 260 -16 132 -12 249 15 440 11 79
30 159 60 255 18 58 38 136 45 174 11 60 18 74 56 112 53 53 56 69 12 60 -18
-3 -44 -7 -57 -9 -17 -1 -27 -11 -34 -32 -5 -16 -15 -37 -22 -45 -6 -8 -24
-37 -40 -65 -16 -27 -31 -52 -35 -55 -14 -9 -21 -48 -10 -55 5 -3 10 -11 10
-17 0 -7 -5 -6 -14 1 -12 10 -17 8 -25 -8 -6 -11 -11 -26 -11 -35 0 -25 -18
-28 -31 -5 -6 12 -13 36 -15 53 -2 17 -8 54 -13 81 -10 56 -16 211 -15 355 1
84 9 151 30 258 4 21 2 38 -7 49 -12 15 -12 16 3 10 13 -4 18 2 23 26 7 36 93
214 106 223 5 3 9 13 9 23 0 10 7 24 15 31 8 7 15 25 15 40 0 19 6 29 19 33
11 2 24 21 31 42 7 21 23 48 36 60 13 12 21 24 19 27 -3 3 1 11 10 18 8 7 15
18 15 24 0 7 11 23 25 36 14 13 25 27 25 32 0 4 31 50 68 100 81 109 125 178
115 178 -4 0 3 7 15 16 12 8 22 20 22 25 0 6 11 25 25 43 19 25 22 35 13 44
-9 9 -7 12 9 12 13 0 24 8 28 20 6 19 14 20 139 18 73 -1 138 2 146 7 7 4 24
9 37 11 56 6 248 98 308 148 22 18 51 39 65 46 14 7 41 29 60 49 19 21 48 46
63 56 16 10 26 24 23 31 -3 8 2 14 12 15 9 0 44 32 77 71 33 38 70 81 83 94
12 14 22 32 22 40 0 8 13 26 29 40 17 14 33 35 37 47 3 12 16 32 27 44 11 13
17 26 14 29 -4 4 0 12 8 18 7 6 23 46 33 88 17 66 18 83 7 114 -13 40 -45 67
-45 39z m157 -4262 c70 -58 137 -102 228 -151 l80 -42 -45 4 c-25 2 -65 11
-90 19 -43 14 -105 26 -160 31 -14 2 -34 7 -45 13 -21 11 -104 28 -119 25 -4
-2 -15 3 -23 9 -8 7 -42 18 -76 25 -117 25 -207 49 -207 55 0 13 38 23 160 40
69 10 153 17 187 15 56 -3 68 -8 110 -43z"/>
<path d="M8142 10164 c-11 -33 -29 -120 -47 -224 -13 -76 -22 -275 -13 -281 7
-4 7 -9 -1 -13 -15 -9 -3 -270 14 -312 10 -24 21 -33 46 -37 34 -5 45 3 111
83 24 28 76 115 82 136 4 12 15 29 26 39 11 10 20 24 20 30 0 7 16 29 35 49
19 21 35 39 35 42 0 2 -13 4 -29 4 -39 0 -148 -102 -157 -148 -4 -18 -13 -32
-20 -32 -7 0 -19 -18 -25 -40 -8 -28 -15 -37 -21 -28 -6 10 -8 10 -8 1 0 -7
-6 -13 -14 -13 -20 0 -25 76 -20 300 6 236 8 265 22 312 6 23 7 40 1 44 -5 3
-9 0 -9 -7 0 -7 -3 -10 -6 -7 -3 4 1 17 9 30 21 32 30 95 16 104 -6 3 -15 1
-19 -6 -6 -10 -8 -10 -12 0 -2 7 -10 -5 -16 -26z"/>
<path d="M12666 9913 c7 -21 22 -57 33 -80 12 -23 21 -47 21 -53 0 -5 5 -10
11 -10 6 0 9 -6 6 -14 -3 -8 0 -20 8 -26 7 -6 15 -23 19 -38 3 -15 15 -72 26
-127 12 -55 26 -134 31 -175 13 -94 8 -312 -7 -331 -6 -8 -17 -36 -23 -63 -7
-27 -21 -60 -32 -74 -10 -14 -19 -30 -19 -36 0 -18 -40 -57 -51 -51 -5 4 -9
18 -9 33 0 45 -11 74 -26 68 -15 -6 -19 9 -5 18 12 8 1 57 -20 88 -11 14 -19
30 -19 35 -1 12 -47 63 -58 63 -6 0 -12 6 -15 13 -3 9 -16 12 -36 9 l-31 -4
19 -32 c10 -17 27 -47 37 -66 10 -19 22 -37 25 -40 10 -9 31 -73 39 -120 9
-51 -10 -127 -42 -170 -19 -26 -19 -29 -3 -54 10 -14 23 -26 31 -26 44 0 195
118 229 180 55 99 94 196 101 250 8 71 5 290 -6 345 -27 143 -33 171 -43 176
-5 4 -7 14 -4 23 3 8 2 18 -3 21 -6 4 -10 16 -10 28 -1 25 -73 162 -110 208
-63 79 -85 90 -64 32z"/>
<path d="M8470 9632 c-8 -9 -14 -21 -12 -26 2 -5 -2 -12 -9 -17 -15 -9 -16
-164 -2 -234 18 -84 43 -156 59 -162 7 -3 14 -16 14 -30 0 -28 24 -77 51 -107
11 -11 23 -32 26 -46 6 -23 33 -69 59 -96 5 -6 26 -31 45 -55 86 -110 275
-270 391 -332 25 -13 56 -31 69 -40 13 -10 29 -17 36 -17 8 0 31 -11 53 -25
41 -26 60 -34 230 -95 58 -20 112 -40 120 -43 31 -11 110 -27 134 -27 14 0 26
-4 26 -8 0 -5 33 -14 73 -20 39 -6 83 -14 97 -17 87 -20 143 -26 151 -18 14
14 -28 46 -101 76 -62 25 -260 77 -294 77 -8 0 -30 6 -48 14 -18 8 -64 24
-103 36 -89 28 -113 39 -260 111 -140 70 -267 145 -278 165 -4 8 -20 20 -35
28 -31 16 -202 182 -202 196 0 5 -9 14 -20 20 -11 6 -20 15 -20 20 0 5 -22 42
-48 82 -122 185 -183 365 -183 546 0 34 -1 62 -2 62 -1 -1 -9 -8 -17 -18z"/>
<path d="M12107 9148 c-2 -24 -5 -61 -5 -82 0 -22 -4 -42 -9 -45 -4 -3 -15
-19 -23 -36 -8 -16 -25 -38 -37 -48 -13 -10 -23 -24 -23 -30 0 -12 -87 -84
-127 -105 -12 -7 -27 -18 -35 -24 -16 -16 -250 -132 -298 -148 -42 -14 -79
-29 -102 -41 -10 -5 -25 -9 -33 -9 -9 0 -33 -9 -53 -19 -20 -11 -48 -23 -62
-29 -70 -26 -152 -68 -167 -84 -9 -10 -21 -18 -27 -18 -70 0 -374 -252 -416
-345 -20 -44 -21 -81 -2 -79 28 2 32 5 32 18 0 8 9 18 20 21 11 4 27 20 35 36
9 16 19 29 23 29 4 0 30 21 57 46 86 79 152 134 162 134 5 0 27 13 49 29 68
50 402 205 488 227 14 3 29 10 32 15 3 5 12 9 20 9 29 0 234 103 234 117 0 8
4 11 10 8 5 -3 29 6 54 20 51 30 186 155 186 172 0 7 6 16 14 20 18 10 56 87
56 112 0 11 5 23 10 26 18 11 11 71 -12 105 -33 49 -46 48 -51 -2z"/>
<path d="M13420 8662 c0 -15 23 -30 37 -25 12 5 14 1 8 -16 -4 -15 -2 -23 10
-27 9 -4 14 -13 11 -20 -3 -7 1 -19 8 -26 7 -7 11 -19 8 -27 -2 -7 0 -23 5
-34 6 -12 18 -47 27 -77 10 -30 22 -64 26 -75 12 -28 40 -159 40 -188 0 -14 7
-28 16 -31 8 -3 13 -10 10 -14 -3 -5 -1 -33 5 -63 8 -42 18 -167 19 -244 2
-72 -10 -190 -23 -225 -9 -25 -19 -62 -22 -82 -5 -28 -12 -38 -26 -38 -11 0
-19 7 -19 15 0 23 -62 114 -82 121 -10 3 -18 14 -18 24 0 19 -54 45 -71 34
-13 -7 -11 -41 2 -50 6 -3 27 -31 47 -61 49 -74 47 -71 72 -125 12 -27 26 -50
31 -54 5 -3 7 -10 4 -15 -4 -5 -3 -14 1 -21 4 -6 8 -58 8 -115 1 -96 3 -104
24 -119 23 -16 25 -15 45 5 18 17 22 38 28 123 7 106 21 207 39 281 33 135 44
451 18 484 -6 7 -7 24 -4 38 3 14 2 33 -3 42 -5 10 -17 54 -26 98 -9 44 -32
127 -51 185 -19 58 -36 112 -38 120 -1 8 -8 28 -14 43 -7 16 -12 31 -12 35 0
4 -11 20 -25 36 -14 16 -25 37 -25 46 0 24 -32 50 -63 50 -15 0 -27 -4 -27 -8z"/>
<path d="M7166 8501 c-3 -5 -3 -16 0 -25 4 -9 1 -16 -6 -16 -7 0 -10 -7 -6
-15 3 -8 -2 -19 -11 -24 -11 -6 -17 -23 -17 -49 -1 -23 -8 -48 -18 -59 -19
-21 -40 -93 -40 -138 0 -16 -4 -32 -9 -35 -4 -3 -13 -70 -19 -150 -6 -80 -15
-161 -20 -180 -11 -40 -14 -383 -3 -393 3 -4 8 -41 9 -82 2 -41 8 -84 14 -95
6 -11 8 -25 5 -30 -3 -5 1 -28 9 -51 8 -24 13 -46 10 -50 -2 -4 0 -18 5 -31 5
-13 20 -57 33 -98 12 -41 26 -76 30 -78 5 -2 8 -11 8 -19 0 -21 68 -155 86
-169 8 -6 14 -15 14 -20 0 -12 45 -68 104 -128 26 -28 59 -64 73 -80 20 -23
33 -30 66 -30 l42 -1 5 130 c3 72 11 141 17 155 6 14 17 45 24 70 7 25 15 50
18 55 3 6 4 18 2 29 -1 10 2 15 7 12 6 -3 12 1 16 9 3 8 1 17 -5 21 -12 7 -39
-14 -39 -31 0 -6 -10 -17 -23 -24 -14 -7 -35 -39 -52 -79 -32 -73 -33 -76 -41
-145 -4 -28 -12 -51 -20 -54 -16 -6 -84 60 -84 82 0 7 -3 15 -8 17 -12 5 -82
115 -98 155 -32 79 -39 93 -46 93 -5 0 -8 9 -8 20 0 11 -11 48 -24 82 -13 35
-29 99 -36 143 -7 44 -17 89 -23 100 -6 11 -12 54 -13 95 -4 163 -3 467 2 510
3 25 7 65 9 90 2 25 4 45 5 45 2 0 7 33 14 95 8 62 22 140 35 186 6 22 11 53
11 69 0 17 9 45 21 64 11 18 19 34 17 35 -2 1 -10 7 -20 14 -10 8 -19 9 -22 3z"/>
<path d="M8630 8387 c-25 -5 -49 -13 -54 -18 -6 -5 -17 -9 -26 -9 -21 0 -84
-67 -99 -105 -12 -32 -12 -135 1 -135 4 0 8 -13 8 -30 0 -16 5 -30 10 -30 6 0
10 -6 10 -14 0 -21 76 -85 128 -108 34 -14 62 -19 99 -16 99 8 153 87 153 224
0 156 -104 265 -230 241z"/>
<path d="M12075 8313 c-49 -21 -84 -51 -97 -83 -11 -30 -20 -170 -10 -170 4 0
15 -17 25 -38 10 -20 37 -50 60 -67 57 -41 142 -45 203 -9 57 32 104 105 104
158 -1 67 -64 164 -131 201 -54 29 -97 31 -154 8z"/>
<path d="M10260 7870 c-6 -4 -22 -5 -36 -2 -15 3 -32 -2 -44 -13 -11 -10 -20
-13 -20 -8 0 17 -41 23 -47 7 -4 -10 -15 -12 -42 -8 -42 7 -96 -10 -85 -27 5
-8 30 -9 83 -4 42 4 105 8 141 9 36 0 70 3 75 6 10 6 213 4 365 -3 47 -3 135
-12 195 -20 106 -15 111 -15 129 3 19 19 19 19 -6 29 -43 16 -272 34 -276 22
-2 -6 -8 -11 -13 -11 -6 0 -8 4 -5 9 3 5 -9 12 -27 15 -44 8 -373 5 -387 -4z"/>
<path d="M10363 7682 c-24 -2 -43 -6 -43 -10 0 -4 -37 -7 -82 -7 -107 0 -168
-8 -178 -24 -6 -10 -12 -10 -29 -1 -18 9 -27 8 -44 -2 -12 -8 -41 -15 -64 -16
-23 0 -51 -6 -62 -11 -11 -6 -33 -11 -50 -11 -17 0 -31 -5 -31 -11 0 -6 -10
-9 -22 -8 -31 3 -97 -11 -104 -22 -3 -5 -20 -9 -37 -9 -30 0 -73 -13 -142 -41
-16 -6 -38 -13 -48 -14 -26 -3 -41 -21 -33 -41 6 -15 8 -15 24 -2 9 9 35 18
57 22 22 4 60 13 85 21 42 13 186 45 220 49 9 1 20 5 25 8 6 3 49 11 98 18 48
7 87 16 87 20 0 3 19 6 43 7 23 0 65 3 92 6 102 14 143 16 292 19 84 1 155 -1
159 -5 4 -4 19 -7 34 -7 15 0 40 -4 56 -10 16 -5 54 -12 84 -15 74 -6 123 -16
136 -26 6 -5 22 -9 35 -9 38 -1 83 -6 99 -13 27 -10 85 -25 100 -25 8 -1 33
-6 55 -12 22 -6 54 -13 70 -15 85 -12 110 -18 115 -26 3 -4 16 -6 28 -2 22 5
22 7 6 24 -9 11 -22 19 -28 19 -6 0 -28 9 -49 20 -21 11 -70 27 -110 35 -40 8
-117 24 -172 36 -55 11 -109 23 -120 25 -11 2 -39 8 -63 14 -23 5 -59 13 -80
16 -20 2 -50 7 -67 10 -79 12 -117 16 -197 19 -48 2 -91 5 -95 7 -5 2 -27 2
-50 0z"/>
<path d="M13433 7395 c3 -19 1 -37 -4 -40 -5 -4 -5 -13 0 -23 27 -52 28 -396
1 -502 -5 -19 -16 -74 -26 -122 -9 -49 -20 -88 -23 -88 -4 0 -13 -17 -20 -37
-20 -57 -130 -275 -145 -287 -7 -6 -30 -33 -52 -61 -21 -27 -56 -67 -76 -87
-21 -20 -38 -41 -38 -47 0 -6 -5 -11 -10 -11 -6 0 -39 -23 -73 -51 -34 -28
-70 -57 -80 -65 -10 -8 -45 -29 -80 -47 -34 -17 -67 -37 -74 -44 -7 -6 -23
-15 -34 -18 -12 -4 -36 -17 -55 -30 -19 -13 -58 -26 -87 -30 -28 -4 -115 -17
-192 -30 -77 -13 -171 -26 -210 -30 -68 -6 -69 -5 -37 9 18 9 46 25 62 36 15
11 34 20 42 20 12 0 87 45 118 72 8 7 31 21 50 31 20 10 49 30 65 45 17 16 37
32 46 38 41 24 99 80 99 96 0 11 7 18 20 18 11 0 20 4 20 8 0 5 10 18 21 31
24 25 14 47 -17 37 -22 -7 -104 -84 -104 -97 0 -5 -4 -9 -10 -9 -10 0 -29 -15
-76 -57 -14 -13 -31 -23 -38 -23 -7 0 -21 -9 -31 -20 -10 -11 -24 -20 -31 -20
-8 0 -19 -9 -26 -20 -7 -11 -18 -20 -25 -20 -7 0 -34 -13 -60 -30 -26 -16 -51
-30 -56 -30 -5 0 -21 -8 -35 -19 -15 -10 -49 -26 -77 -36 -27 -10 -54 -22 -60
-25 -18 -13 -83 -21 -89 -11 -4 5 -2 12 4 16 5 3 10 13 10 22 0 8 13 32 30 52
20 26 27 44 23 59 -3 12 -9 22 -13 22 -3 0 -24 -23 -46 -50 -21 -28 -49 -62
-62 -78 -31 -38 -38 -70 -19 -89 19 -20 123 -21 167 -3 16 7 42 10 57 7 106
-22 141 -26 248 -26 120 0 162 5 266 31 30 8 64 11 75 7 10 -4 41 -8 68 -8 26
-1 69 -7 95 -15 41 -13 151 -40 326 -81 124 -29 219 -77 274 -137 80 -90 172
-228 202 -303 17 -44 35 -88 40 -97 5 -10 9 -24 9 -33 0 -8 11 -39 24 -70 14
-30 23 -55 20 -55 -3 0 0 -9 6 -21 8 -13 11 -82 11 -185 0 -155 -2 -169 -30
-254 -39 -115 -66 -155 -154 -228 -103 -85 -193 -134 -307 -167 -25 -7 -56
-17 -70 -23 -50 -21 -65 -25 -88 -28 -66 -8 -97 -72 -58 -122 40 -52 139 -143
159 -146 7 -1 30 -12 50 -24 21 -12 42 -22 47 -22 5 0 26 -10 47 -22 21 -12
52 -28 68 -36 43 -22 148 -108 174 -143 12 -16 28 -29 36 -29 9 0 12 -6 8 -15
-3 -9 1 -23 8 -33 15 -18 16 -21 74 -127 20 -38 40 -72 44 -75 4 -3 19 -39 35
-80 39 -104 44 -120 52 -160 3 -19 8 -38 11 -42 2 -4 6 -49 9 -99 3 -51 9 -99
13 -108 25 -49 30 -644 6 -704 -4 -9 -5 -26 -2 -37 3 -11 1 -23 -4 -26 -5 -3
-9 -16 -9 -29 0 -22 -12 -39 -63 -94 -61 -64 -152 -100 -382 -151 -55 -12
-118 -28 -140 -35 -22 -8 -76 -17 -120 -21 -44 -4 -90 -13 -102 -21 -15 -10
-27 -12 -38 -5 -10 5 -36 5 -66 0 -27 -5 -140 -7 -251 -5 -112 3 -261 6 -333
7 -113 2 -293 -7 -500 -25 -245 -23 -295 -26 -435 -30 -135 -5 -168 -7 -290
-22 -36 -5 -121 -5 -190 -1 -123 7 -139 9 -251 23 -39 5 -59 4 -64 -4 -5 -9
-10 -9 -21 0 -11 9 -21 9 -41 0 -14 -6 -28 -10 -30 -7 -3 2 -13 62 -23 133
-11 70 -22 139 -26 153 -3 14 -8 41 -10 62 -2 20 -6 49 -9 65 -4 15 -8 39 -9
53 -10 98 -28 229 -35 252 -5 14 -6 38 -3 53 2 14 0 36 -6 48 -10 21 -20 134
-42 457 -16 241 -27 1399 -15 1650 1 30 6 143 9 250 4 107 10 229 13 270 5 58
7 470 4 538 -1 6 0 31 2 55 2 36 5 42 24 42 34 1 35 9 8 39 -40 43 -56 72 -50
89 10 24 -15 27 -196 25 -91 -1 -171 2 -178 6 -6 4 -18 3 -25 -3 -8 -6 -26
-10 -42 -9 -16 1 -48 1 -71 0 -35 -2 -43 -6 -43 -21 0 -18 6 -19 63 -16 34 2
64 4 67 5 3 1 45 2 95 2 49 -1 94 2 100 6 5 4 30 5 55 2 33 -5 40 -8 28 -14
-10 -5 -18 -13 -18 -19 0 -19 -70 -116 -98 -134 -36 -25 -62 -22 -113 16 -44
32 -69 39 -69 20 0 -17 75 -89 94 -89 10 0 25 -4 34 -8 9 -5 35 -5 57 0 32 7
49 20 88 70 26 33 47 67 47 75 0 9 12 25 27 36 28 22 57 32 47 16 -3 -6 6 -25
20 -44 24 -31 26 -38 16 -81 -8 -34 -7 -50 1 -60 8 -10 8 -14 0 -14 -6 0 -10
-10 -10 -22 1 -13 -4 -63 -10 -113 -6 -49 -11 -111 -11 -137 l0 -46 -117 -1
c-65 -1 -180 -3 -255 -5 -156 -5 -149 -8 -181 89 -25 78 -44 120 -61 135 -9 7
-16 17 -16 22 0 12 -51 86 -85 121 -29 31 -28 45 2 28 51 -27 237 -90 247 -83
6 4 22 7 36 7 18 0 25 5 25 20 0 15 -14 25 -60 41 -33 11 -75 28 -94 38 -18
10 -88 34 -155 53 -66 19 -127 40 -133 45 -7 6 -19 8 -28 5 -8 -4 -17 -2 -19
2 -7 11 -70 21 -95 14 -19 -5 -19 -7 -4 -29 8 -13 20 -24 26 -24 6 0 25 -15
42 -32 17 -18 50 -49 74 -68 23 -19 47 -39 52 -45 24 -26 102 -132 110 -150 5
-11 13 -27 18 -35 20 -35 60 -128 70 -160 13 -44 25 -92 26 -105 0 -5 3 -14 6
-20 4 -5 12 -41 19 -80 7 -38 17 -81 23 -95 5 -14 11 -45 13 -70 3 -24 11 -65
18 -90 17 -56 18 -61 24 -82 10 -41 35 -3 37 57 4 73 -50 392 -71 426 -4 6 27
9 88 7 108 -3 367 8 391 18 23 8 24 -3 13 -190 -4 -66 -9 -123 -11 -126 -4 -6
-24 -504 -29 -733 -2 -87 -6 -160 -8 -163 -3 -2 -2 -25 2 -51 4 -26 8 -232 9
-457 1 -225 4 -412 5 -415 2 -3 7 -96 10 -206 4 -110 11 -227 16 -260 5 -33
11 -94 15 -135 3 -41 10 -102 15 -135 27 -173 31 -203 32 -240 0 -22 4 -47 8
-55 5 -8 20 -103 35 -210 38 -276 44 -303 79 -315 23 -8 30 -6 42 9 7 10 15
23 16 28 5 15 144 11 238 -7 47 -9 104 -14 127 -12 24 2 41 2 39 -2 -6 -9 36
-9 214 2 91 5 183 10 205 11 22 1 46 5 53 9 6 5 17 5 24 1 13 -8 28 -8 228 6
450 32 878 42 943 21 37 -12 184 -9 337 7 58 7 130 14 160 17 30 3 77 12 104
20 27 8 64 15 81 15 17 0 35 3 39 7 3 4 14 8 24 9 9 2 44 10 77 19 33 9 74 17
90 19 100 13 231 77 309 150 104 99 122 184 119 586 0 124 -3 248 -6 275 -9
99 -29 240 -35 250 -4 5 -5 22 -3 37 1 16 -4 42 -13 58 -8 17 -13 37 -10 45 3
7 1 16 -5 20 -6 3 -11 15 -11 26 0 19 -7 35 -95 209 -26 52 -47 96 -46 98 3 5
-83 127 -126 178 -26 31 -122 104 -137 104 -7 0 -21 9 -31 20 -10 11 -33 25
-51 32 -19 7 -34 16 -34 20 0 5 -6 8 -13 6 -17 -4 -97 32 -121 54 -11 10 -26
18 -33 18 -7 0 -19 11 -25 25 -6 13 -19 27 -28 30 -18 6 -33 42 -24 57 3 4 12
8 20 8 22 0 138 42 145 53 4 5 12 7 17 3 6 -4 28 3 49 14 21 11 43 20 50 20 7
0 29 10 50 22 21 11 47 26 58 32 95 51 239 205 268 287 46 128 48 148 44 339
-3 135 -8 201 -21 245 -20 70 -38 115 -47 115 -4 0 -9 21 -13 48 -4 26 -15 63
-26 82 -10 19 -25 50 -34 67 -15 33 -50 83 -96 138 -14 17 -34 44 -45 60 -11
16 -39 48 -63 72 -23 23 -39 44 -34 46 4 3 24 8 45 12 20 4 37 11 37 16 0 5 6
9 13 9 13 1 57 34 57 45 0 4 -28 4 -62 0 -169 -17 -233 -17 -291 0 -60 17 -62
23 -20 49 62 36 93 59 93 67 0 4 15 15 33 24 41 19 177 157 177 179 0 9 7 16
15 16 17 0 20 35 4 45 -15 10 -59 -34 -52 -51 3 -9 -2 -14 -13 -14 -11 0 -41
-21 -67 -45 -26 -25 -51 -45 -55 -45 -4 0 -21 -16 -37 -35 -17 -19 -38 -35
-47 -35 -9 0 -21 -6 -25 -13 -13 -22 -163 -91 -197 -90 -17 0 -49 6 -71 12
-22 7 -71 17 -110 23 -38 5 -74 13 -78 18 -5 4 30 29 77 55 47 27 86 52 86 57
0 5 11 13 25 18 14 5 25 13 25 18 0 5 11 14 24 22 15 8 22 18 19 27 -5 12 -1
14 15 8 12 -3 22 -3 22 2 0 9 27 38 94 100 108 102 248 340 291 498 9 33 21
70 26 83 5 13 9 35 9 51 0 15 3 31 6 34 23 23 22 362 -1 510 -9 59 -34 130
-48 139 -23 15 -30 8 -24 -27z"/>
<path d="M11640 7386 c0 -7 38 -53 85 -102 47 -49 88 -97 91 -106 3 -10 12
-18 20 -18 8 0 14 -6 14 -14 0 -7 11 -34 25 -58 33 -58 44 -122 34 -193 -9
-71 -31 -116 -70 -149 l-31 -26 -25 20 c-14 11 -40 22 -59 26 -19 3 -34 12
-34 19 0 21 -34 27 -149 27 -124 -1 -155 -12 -241 -90 -52 -46 -130 -155 -130
-181 0 -7 -7 -23 -16 -36 -9 -13 -13 -29 -9 -34 3 -6 -1 -26 -10 -45 -9 -19
-14 -39 -11 -44 3 -6 0 -15 -8 -21 -8 -6 -17 -32 -20 -56 -4 -25 -12 -47 -18
-51 -6 -4 -8 -22 -4 -44 6 -36 4 -38 -25 -44 -17 -3 -45 -6 -61 -6 -25 0 -29
-3 -24 -22 3 -13 3 -17 0 -10 -3 6 -13 12 -21 12 -12 0 -13 -3 -4 -13 13 -16
-4 -37 -30 -37 -10 0 -21 -4 -24 -10 -3 -5 -17 -10 -31 -10 -14 0 -34 -4 -44
-10 -48 -26 -476 -27 -535 -1 -72 30 -195 95 -195 101 0 4 -8 10 -19 13 -13 3
-23 26 -40 93 -11 49 -21 94 -21 101 0 6 -5 24 -11 40 -7 15 -13 38 -15 50 -6
45 -72 148 -139 218 -78 81 -163 128 -273 151 -70 15 -148 9 -173 -13 -9 -7
-23 -11 -32 -7 -16 6 -77 -24 -77 -38 0 -19 -41 -5 -69 23 -34 34 -71 102 -71
130 0 10 -4 21 -10 24 -5 3 -7 35 -3 78 3 40 6 91 7 115 0 23 4 42 7 42 4 0
14 17 23 38 27 59 43 83 71 108 35 30 30 58 -10 62 -25 2 -36 -5 -68 -42 -20
-25 -37 -52 -37 -60 0 -9 -4 -16 -10 -16 -5 0 -10 -11 -10 -24 0 -14 -5 -28
-10 -31 -40 -25 -61 -239 -31 -315 50 -127 85 -171 168 -214 26 -13 49 -15
121 -10 l89 7 64 -37 c96 -56 124 -77 271 -206 15 -13 28 -28 28 -33 0 -4 11
-19 23 -33 21 -22 67 -132 74 -174 1 -8 7 -16 12 -18 6 -2 11 -9 11 -15 1 -19
33 -53 56 -59 18 -5 21 -2 16 16 -5 20 -4 20 15 4 11 -10 27 -18 36 -18 9 0
22 -8 29 -19 15 -21 145 -89 198 -103 79 -20 99 -23 188 -22 56 1 97 5 101 12
13 22 65 32 166 32 57 0 128 5 157 11 58 11 128 40 128 52 0 4 6 7 14 7 8 0
16 7 20 15 3 8 12 15 20 15 7 0 16 7 20 15 3 8 12 12 20 9 8 -3 17 -1 21 5 3
6 14 11 23 11 10 0 34 22 55 50 42 56 50 86 12 43 l-25 -28 11 33 c6 17 16 32
21 32 12 0 128 120 128 132 0 5 5 8 11 8 7 0 31 18 55 39 23 22 67 54 98 71
31 18 56 35 56 40 0 4 21 15 48 24 60 21 60 21 104 30 21 5 42 14 49 22 15 18
29 18 29 0 0 -8 -9 -18 -20 -21 -11 -3 -20 -10 -20 -15 0 -5 -3 -15 -6 -24
-12 -30 24 -28 72 5 64 44 100 84 131 149 24 49 27 66 26 150 0 52 -2 111 -5
131 -5 38 -52 145 -75 167 -7 7 -13 16 -13 20 0 9 -112 124 -136 140 -10 6
-29 16 -41 21 -11 6 -24 15 -28 20 -9 16 -45 13 -45 -3z"/>
<path d="M11099 5760 c-8 -5 -34 -11 -58 -14 -24 -3 -48 -9 -54 -14 -7 -5 -39
-8 -72 -6 -33 1 -138 5 -232 9 -151 6 -173 5 -173 -8 0 -9 6 -17 13 -20 6 -2
93 -2 192 1 99 2 176 1 172 -4 -4 -5 -29 -10 -55 -11 -25 -2 -51 -8 -56 -13
-6 -6 -19 -10 -31 -10 -11 0 -30 -7 -42 -15 -12 -8 -28 -13 -36 -10 -7 3 -20
-1 -27 -10 -11 -13 -15 -13 -22 -3 -7 10 -11 9 -22 -4 -7 -10 -21 -18 -31 -18
-15 0 -15 -2 -4 -16 16 -20 69 -9 264 53 27 8 63 18 79 20 17 3 39 11 50 19
11 8 33 14 48 14 16 0 28 5 28 10 0 6 8 10 18 10 10 0 27 7 38 15 10 8 29 15
41 15 12 0 25 5 28 10 8 12 -34 13 -56 0z"/>
<path d="M11438 5760 c-1 -5 -19 -11 -38 -14 -67 -8 -102 -19 -107 -33 -3 -8
-13 -13 -22 -11 -26 3 -110 -12 -116 -22 -3 -5 -34 -12 -70 -15 -35 -4 -70
-14 -76 -21 -21 -26 46 -17 271 36 19 5 60 16 90 25 30 9 65 19 77 22 12 3 30
14 39 24 16 18 16 19 -14 19 -17 0 -32 -4 -34 -10z"/>
<path d="M11840 5279 c0 -11 -4 -18 -9 -14 -5 3 -13 1 -16 -5 -13 -22 17 -38
78 -43 131 -9 250 -62 342 -152 85 -83 178 -299 176 -413 0 -74 -6 -131 -15
-139 -3 -3 -6 -14 -6 -24 0 -45 -102 -161 -145 -165 -5 0 -17 -4 -25 -7 -8 -3
-40 -11 -70 -17 -53 -11 -93 -23 -135 -40 -49 -20 -89 -30 -96 -23 -12 13 -39
255 -40 362 -1 56 -6 104 -11 107 -5 4 -5 10 1 17 5 7 6 40 2 82 -4 39 -6 114
-5 168 2 78 0 99 -12 104 -11 4 -13 16 -9 52 7 55 -6 81 -32 65 -16 -10 -18
-29 -20 -140 -1 -84 2 -131 9 -135 6 -4 8 -15 3 -25 -16 -39 1 -544 20 -595 3
-8 7 -42 9 -77 5 -95 37 -112 126 -67 45 23 82 34 215 66 136 32 223 89 261
168 55 116 64 150 64 245 -1 94 -11 149 -44 220 -13 28 -27 62 -31 76 -4 14
-16 36 -26 49 -11 13 -19 29 -19 35 0 21 -94 125 -145 162 -99 71 -242 124
-332 124 -57 0 -63 -2 -63 -21z"/>
<path d="M8142 5260 c-30 -10 -69 -33 -89 -51 -42 -41 -74 -109 -61 -126 7 -8
5 -17 -5 -28 -11 -10 -14 -27 -10 -57 7 -59 23 -108 35 -108 6 0 8 -10 4 -23
-3 -14 4 -42 19 -72 13 -28 25 -56 25 -63 0 -15 78 -136 91 -140 5 -2 9 -10 9
-18 0 -8 4 -14 8 -14 4 0 34 -25 67 -56 32 -31 77 -68 99 -82 23 -15 43 -30
46 -33 7 -9 60 1 60 11 0 4 -17 20 -37 36 -96 72 -295 309 -290 344 0 3 -14
42 -31 87 -50 129 -43 218 23 288 39 43 44 45 97 45 31 0 66 -6 79 -13 66 -35
111 -73 125 -106 9 -20 27 -57 40 -83 13 -27 23 -51 22 -55 -1 -7 17 -77 30
-113 8 -23 9 -31 10 -88 2 -45 5 -54 25 -61 33 -13 57 13 57 63 0 58 -10 88
-26 82 -17 -6 -18 6 -3 21 9 9 9 22 1 50 -17 63 -38 115 -49 122 -6 3 -13 22
-17 42 -3 20 -22 57 -41 82 -40 52 -146 120 -187 120 -16 0 -28 4 -28 9 0 13
-40 8 -98 -12z"/>
<path d="M8574 4629 c-25 -33 -28 -43 -9 -35 10 4 21 2 25 -3 3 -6 51 -15 105
-22 55 -6 103 -13 107 -16 27 -16 305 -22 553 -11 61 3 118 1 129 -5 12 -6 27
-5 43 2 17 8 29 8 37 2 31 -26 147 -3 184 36 26 28 27 36 7 53 -13 11 -27 10
-75 -5 -50 -15 -74 -17 -147 -9 -48 4 -128 7 -178 5 -231 -10 -470 -9 -481 0
-7 6 -75 13 -151 16 -111 5 -140 3 -149 -8z"/>
<path d="M8637 4249 c-7 -25 20 -52 71 -71 17 -7 32 -15 32 -19 0 -16 367
-244 390 -241 3 0 4 -4 2 -10 -1 -5 7 -7 19 -3 14 5 19 3 15 -3 -3 -6 6 -17
21 -25 39 -19 103 -56 133 -76 54 -35 66 -42 97 -56 18 -8 46 -27 62 -42 17
-16 47 -41 67 -58 78 -64 167 -162 207 -228 10 -16 31 -43 47 -60 16 -17 36
-51 46 -77 9 -25 24 -56 33 -70 9 -14 16 -32 17 -40 1 -8 13 -50 27 -92 14
-43 29 -93 33 -113 3 -19 10 -35 15 -35 5 0 7 -17 5 -37 -3 -20 0 -43 5 -49
14 -17 13 -277 -1 -303 -6 -12 -8 -26 -5 -32 4 -5 0 -20 -8 -32 -8 -12 -20
-45 -26 -74 -7 -28 -19 -54 -27 -57 -8 -3 -14 -14 -14 -25 0 -11 -3 -21 -8
-23 -4 -1 -30 -41 -58 -88 -44 -73 -144 -215 -163 -230 -12 -10 -81 -99 -81
-104 0 -8 -57 -58 -118 -104 -26 -20 -49 -39 -52 -43 -10 -14 -163 -85 -265
-124 -55 -20 -109 -41 -120 -45 -145 -57 -293 -89 -540 -115 -80 -8 -453 -25
-555 -25 -80 0 -124 6 -185 24 -72 21 -199 80 -233 109 -10 8 -16 7 -23 -4 -8
-11 -9 -10 -7 6 2 13 -2 19 -11 17 -7 -1 -19 2 -26 8 -30 25 -61 -20 -33 -48
15 -15 -4 -17 -30 -2 -9 5 -42 21 -72 35 -61 27 -70 32 -150 89 -104 74 -270
225 -270 245 0 6 -7 11 -15 11 -8 0 -15 5 -15 11 0 6 -13 28 -28 48 -32 41
-112 178 -112 192 0 5 -4 9 -9 9 -5 0 -12 17 -16 37 -4 21 -10 42 -13 48 -3 5
-7 18 -8 30 -2 11 -10 49 -18 86 -10 41 -16 123 -18 227 -2 129 -5 163 -16
167 -13 5 -13 8 0 23 10 12 14 37 13 82 -1 71 10 125 33 153 12 13 31 17 81
18 36 0 104 7 151 15 114 19 256 32 425 38 77 3 182 8 233 12 61 4 151 0 260
-11 123 -13 167 -15 170 -6 2 6 8 9 13 5 5 -3 9 -3 9 0 0 10 -58 36 -80 36
-11 0 -20 4 -20 9 0 15 -171 32 -320 32 -197 1 -561 -10 -583 -17 -11 -3 -29
-7 -40 -9 -12 -1 -51 -8 -87 -14 -36 -6 -96 -13 -135 -15 -119 -8 -133 -14
-157 -59 -24 -48 -30 -114 -32 -337 -2 -308 25 -481 94 -590 8 -13 20 -38 26
-55 17 -51 115 -191 146 -209 15 -10 28 -23 28 -29 0 -7 9 -18 20 -25 11 -7
20 -19 20 -27 0 -8 4 -15 9 -15 5 0 25 -15 44 -32 110 -104 201 -173 295 -222
54 -29 83 -40 96 -37 4 1 13 -3 20 -8 6 -5 42 -8 81 -6 38 2 72 0 75 -4 9 -14
133 -68 209 -91 63 -19 99 -23 235 -24 89 0 215 3 281 7 158 11 177 13 196 21
10 4 20 3 23 -2 3 -6 21 -7 43 -2 21 4 76 11 123 14 76 6 231 36 285 56 11 4
47 15 80 25 33 10 64 22 70 27 5 4 17 8 27 8 10 0 26 4 36 10 9 5 60 26 112
46 113 44 180 76 238 116 47 32 232 212 232 225 0 5 12 22 28 39 15 17 34 43
42 58 8 15 27 38 42 51 15 13 28 31 28 39 0 8 6 19 13 23 6 4 20 22 29 38 9
17 33 57 52 91 20 33 36 68 36 76 0 9 6 21 13 27 8 6 22 39 31 73 10 35 22 72
26 83 21 54 29 109 28 203 0 56 -5 102 -10 102 -5 0 -8 19 -7 43 3 42 -33 206
-51 239 -6 10 -10 27 -10 39 0 11 -7 27 -15 35 -8 9 -15 24 -15 34 0 10 -4 22
-10 25 -5 3 -10 15 -10 27 0 11 -13 40 -30 65 -16 24 -30 48 -30 53 0 6 -21
38 -47 72 -26 35 -52 69 -58 76 -33 45 -215 221 -233 226 -12 4 -22 11 -22 15
0 5 -13 14 -30 21 -16 7 -30 16 -30 21 0 5 -6 9 -14 9 -7 0 -19 7 -26 16 -8 8
-29 22 -49 30 -19 8 -42 21 -51 29 -9 8 -43 28 -75 46 -33 17 -88 47 -123 65
-34 19 -68 34 -75 34 -8 0 -36 17 -64 38 -28 20 -77 51 -108 67 -32 17 -68 40
-81 53 -13 12 -27 22 -33 22 -5 0 -33 16 -62 35 -30 19 -56 35 -60 35 -4 0 -9
-10 -12 -21z"/>
<path d="M11861 3644 c-19 -14 -22 -22 -16 -48 17 -82 22 -434 6 -464 -10 -19
-9 -48 3 -75 5 -10 4 -23 -2 -30 -6 -7 -14 -91 -17 -192 -4 -99 -8 -203 -9
-230 -7 -142 39 -341 84 -365 36 -19 72 3 106 67 26 50 115 153 131 153 7 0
87 58 118 85 17 15 40 35 51 44 12 9 29 31 38 49 9 18 21 32 26 32 5 0 23 26
39 58 37 73 56 222 41 315 -16 103 -79 263 -107 274 -7 3 -13 11 -13 19 0 8
-7 14 -15 14 -8 0 -15 9 -15 20 0 10 -18 38 -40 61 -22 23 -40 46 -40 51 0 4
-6 8 -13 8 -8 0 -22 9 -32 20 -28 31 -153 97 -210 111 -27 7 -59 18 -71 25
-17 12 -24 11 -43 -2z m158 -130 c59 -28 186 -128 195 -154 5 -14 40 -57 81
-101 8 -9 15 -22 15 -30 0 -8 13 -45 29 -84 58 -144 47 -313 -28 -420 -46 -66
-192 -197 -238 -215 -12 -5 -43 -36 -70 -69 -26 -34 -53 -61 -60 -61 -7 0 -16
17 -20 38 -10 48 -10 521 1 677 9 125 9 164 1 280 -12 179 -7 186 94 139z"/>
</g>
</svg>
