<?xml version="1.0" encoding="UTF-8" standalone="no"?><!DOCTYPE svg PUBLIC "-//W3C//DTD SVG 1.1//EN" "http://www.w3.org/Graphics/SVG/1.1/DTD/svg11.dtd"><svg width="100%" height="100%" viewBox="0 0 499 90" version="1.1" xmlns="http://www.w3.org/2000/svg" xmlns:xlink="http://www.w3.org/1999/xlink" xml:space="preserve" style="fill-rule:evenodd;clip-rule:evenodd;stroke-linejoin:round;stroke-miterlimit:1.41421;"><rect id="Artboard1" x="0" y="0" width="498.239" height="89.847" style="fill:none;"/><g><path d="M2.531,78l6.844,-14.063c3.375,3.532 6.516,5.297 9.422,5.297c2.437,0 3.656,-0.875 3.656,-2.625c0,-1.5 -1.641,-2.843 -4.922,-4.031c-8.844,-3.125 -13.265,-8.078 -13.265,-14.859c0,-4.969 1.968,-9.094 5.906,-12.375c3.969,-3.282 8.922,-4.922 14.859,-4.922c4.875,0 9.906,1.375 15.094,4.125l-6.422,13.734c-3.156,-2.969 -5.734,-4.453 -7.734,-4.453c-1.969,0 -2.953,0.797 -2.953,2.391c0,1.718 1.875,3.328 5.625,4.828c4.687,1.844 7.875,3.797 9.562,5.859c1.781,2.063 2.672,4.906 2.672,8.531c0,5.219 -1.891,9.485 -5.672,12.797c-3.781,3.313 -8.641,4.969 -14.578,4.969c-2.844,0 -5.672,-0.359 -8.484,-1.078c-1.313,-0.344 -2.75,-0.867 -4.313,-1.57c-1.562,-0.703 -3.328,-1.555 -5.297,-2.555Z" style="fill:#fff;fill-rule:nonzero;"/><path d="M69.328,82.172l-18.844,0l0,-35.531l-5.343,0l0,-15.141l5.343,0l0,-14.906l18.844,0l0,14.906l6.234,0l0,15.141l-6.234,0l0,35.531Z" style="fill:#fff;fill-rule:nonzero;"/><path d="M126.703,82.172l-18.844,0c0.157,-1.688 0.282,-3.297 0.375,-4.828c0.094,-1.532 0.188,-2.766 0.282,-3.703c-3.25,6.375 -7.61,9.562 -13.079,9.562c-4.75,0 -8.515,-2.375 -11.296,-7.125c-2.75,-4.719 -4.125,-11.25 -4.125,-19.594c0,-8.062 1.421,-14.406 4.265,-19.031c2.844,-4.687 6.719,-7.031 11.625,-7.031c5.031,0 9.094,3.031 12.188,9.094c-0.063,-0.625 -0.11,-1.172 -0.141,-1.641c-0.031,-0.469 -0.062,-0.859 -0.094,-1.172l-0.187,-2.953l-0.141,-2.25l19.172,0l0,50.672Zm-19.031,-25.969c0,-1.875 -0.07,-3.469 -0.211,-4.781c-0.141,-1.313 -0.367,-2.383 -0.68,-3.211c-0.312,-0.828 -0.719,-1.422 -1.219,-1.781c-0.5,-0.36 -1.109,-0.539 -1.828,-0.539c-3.187,0 -4.781,4.234 -4.781,12.703c0,6.062 1.422,9.093 4.266,9.093c2.968,0 4.453,-3.828 4.453,-11.484Z" style="fill:#fff;fill-rule:nonzero;"/><path d="M161.719,65.625l0,17.297c-1.125,0.125 -2.11,0.211 -2.953,0.258c-0.844,0.047 -1.547,0.07 -2.11,0.07c-5.625,0 -10.328,-1.688 -14.109,-5.063c-2.563,-2.281 -4.641,-5.406 -6.235,-9.375c-1.593,-3.968 -2.39,-8.046 -2.39,-12.234c0,-7.437 2.281,-13.672 6.844,-18.703c4.531,-4.969 10.25,-7.453 17.156,-7.453c0.406,0 0.922,0.015 1.547,0.047c0.625,0.031 1.375,0.078 2.25,0.14l0,16.5c-5.563,0.375 -8.344,3.407 -8.344,9.094c0,2.563 0.687,4.813 2.062,6.75c1.407,1.844 3.079,2.766 5.016,2.766c0.188,0 0.383,-0.008 0.586,-0.024c0.203,-0.015 0.43,-0.039 0.68,-0.07Z" style="fill:#fff;fill-rule:nonzero;"/><path d="M198.375,82.172l-7.266,-19.688c-0.343,-0.875 -0.906,-2.797 -1.687,-5.765l0,25.453l-18.797,0l0,-79.172l18.797,0l0,51.328c0.406,-1.312 0.851,-2.617 1.336,-3.914c0.484,-1.297 0.992,-2.617 1.523,-3.961l6.094,-14.953l20.344,0l-12.469,23.25l13.734,27.422l-21.609,0Z" style="fill:#fff;fill-rule:nonzero;"/><path d="M243.562,82.172l-19.218,0l0,-79.172l18.797,0l0,27.75c0,2.344 -0.094,5.031 -0.282,8.062c1.719,-3.062 3.453,-5.234 5.203,-6.515c1.813,-1.25 4.094,-1.875 6.844,-1.875c5.125,0 9.094,2.359 11.906,7.078c2.813,4.687 4.219,11.297 4.219,19.828c0,8.156 -1.453,14.5 -4.359,19.031c-2.875,4.563 -6.86,6.844 -11.953,6.844c-2.469,0 -4.563,-0.562 -6.282,-1.687c-0.843,-0.594 -1.71,-1.391 -2.601,-2.391c-0.891,-1 -1.789,-2.25 -2.695,-3.75c0.031,0.594 0.062,1.102 0.093,1.523c0.032,0.422 0.063,0.774 0.094,1.055l0.234,4.219Zm8.016,-25.266c0,-7.25 -1.594,-10.875 -4.781,-10.875c-2.813,0 -4.219,3.422 -4.219,10.266c0,7.156 1.453,10.734 4.359,10.734c3.094,0 4.641,-3.375 4.641,-10.125Z" style="fill:#fff;fill-rule:nonzero;"/><path d="M278.25,31.5l18.797,0l0,28.547c0,2.719 0.265,4.703 0.797,5.953c0.562,1.031 1.625,1.547 3.187,1.547c1.531,0 2.563,-0.516 3.094,-1.547c0.562,-1.031 0.844,-3.016 0.844,-5.953l0,-28.547l18.797,0l0,31.078c0,2.063 -0.164,3.93 -0.493,5.602c-0.328,1.672 -0.843,3.187 -1.546,4.547c-0.704,1.359 -1.61,2.601 -2.719,3.726c-1.11,1.125 -2.43,2.156 -3.961,3.094c-4.125,2.437 -8.797,3.656 -14.016,3.656c-5.281,0 -9.953,-1.219 -14.015,-3.656c-1.563,-0.938 -2.899,-1.961 -4.008,-3.07c-1.11,-1.11 -2.016,-2.352 -2.719,-3.727c-0.703,-1.375 -1.219,-2.898 -1.547,-4.57c-0.328,-1.672 -0.492,-3.539 -0.492,-5.602l0,-31.078Z" style="fill:#fff;fill-rule:nonzero;"/><path d="M353.859,82.172l-18.843,0l0,-35.531l-5.344,0l0,-15.141l5.344,0l0,-14.906l18.843,0l0,14.906l6.235,0l0,15.141l-6.235,0l0,35.531Z" style="fill:#fff;fill-rule:nonzero;"/><path d="M386.531,82.172l-18.844,0l0,-35.531l-5.343,0l0,-15.141l5.343,0l0,-14.906l18.844,0l0,14.906l6.235,0l0,15.141l-6.235,0l0,35.531Z" style="fill:#fff;fill-rule:nonzero;"/><path d="M444.047,57.609c0,7.813 -2.156,14.032 -6.469,18.657c-4.312,4.625 -10.094,6.937 -17.344,6.937c-7.125,0 -12.797,-2.359 -17.015,-7.078c-4.188,-4.75 -6.282,-11.125 -6.282,-19.125c0,-8 2.141,-14.422 6.422,-19.266c4.25,-4.875 9.891,-7.312 16.922,-7.312c7.406,0 13.219,2.422 17.438,7.265c4.218,4.844 6.328,11.485 6.328,19.922Zm-18.235,-0.609c0,-1.875 -0.125,-3.57 -0.375,-5.086c-0.25,-1.516 -0.609,-2.812 -1.078,-3.891c-0.468,-1.078 -1.031,-1.914 -1.687,-2.507c-0.656,-0.594 -1.391,-0.891 -2.203,-0.891c-1.594,0 -2.875,1.125 -3.844,3.375c-0.969,1.969 -1.453,4.922 -1.453,8.859c0,3.875 0.484,6.828 1.453,8.86c0.969,2.25 2.266,3.375 3.891,3.375c1.531,0 2.796,-1.11 3.796,-3.328c1,-2.469 1.5,-5.391 1.5,-8.766Z" style="fill:#fff;fill-rule:nonzero;"/><path d="M495.891,82.172l-18.797,0l0,-26.813c0,-2.312 -0.227,-3.922 -0.68,-4.828c-0.453,-0.906 -1.242,-1.359 -2.367,-1.359c-2.625,0 -3.938,2.484 -3.938,7.453l0,25.547l-18.797,0l0,-50.672l18.797,0c-0.031,1.25 -0.062,2.406 -0.093,3.469c-0.032,1.062 -0.079,2.047 -0.141,2.953l-0.188,3.234c3.032,-7.156 7.469,-10.734 13.313,-10.734c4.063,0 7.219,1.515 9.469,4.547c2.281,3.031 3.422,7.25 3.422,12.656l0,34.547Z" style="fill:#fff;fill-rule:nonzero;"/></g></svg>