<?xml version="1.0" encoding="UTF-8" standalone="no"?><!DOCTYPE svg PUBLIC "-//W3C//DTD SVG 1.1//EN" "http://www.w3.org/Graphics/SVG/1.1/DTD/svg11.dtd"><svg width="100%" height="100%" viewBox="0 0 2080 375" version="1.1" xmlns="http://www.w3.org/2000/svg" xmlns:xlink="http://www.w3.org/1999/xlink" xml:space="preserve" style="fill-rule:evenodd;clip-rule:evenodd;stroke-linejoin:round;stroke-miterlimit:1.41421;"><rect id="Artboard1" x="0" y="0" width="2076" height="374.363" style="fill:none;"/><g><path d="M10.546,325l28.517,-58.596c14.062,14.717 27.15,22.071 39.258,22.071c10.154,0 15.233,-3.646 15.233,-10.938c0,-6.25 -6.837,-11.845 -20.508,-16.795c-36.85,-13.021 -55.271,-33.659 -55.271,-61.913c0,-20.704 8.2,-37.892 24.608,-51.562c16.538,-13.675 37.175,-20.509 61.913,-20.509c20.312,0 41.275,5.729 62.891,17.188l-26.758,57.225c-13.15,-12.371 -23.891,-18.554 -32.225,-18.554c-8.204,0 -12.304,3.32 -12.304,9.962c0,7.159 7.813,13.867 23.438,20.117c19.529,7.683 32.812,15.821 39.841,24.412c7.421,8.596 11.133,20.442 11.133,35.546c0,21.746 -7.879,39.521 -23.633,53.321c-15.754,13.804 -36.004,20.704 -60.741,20.704c-11.85,0 -23.634,-1.496 -35.35,-4.492c-5.471,-1.433 -11.459,-3.612 -17.971,-6.541c-6.509,-2.929 -13.867,-6.479 -22.071,-10.646l0,0Z" style="fill-rule:nonzero;"/><path d="M288.867,342.383l-78.517,0l0,-148.045l-22.262,0l0,-63.088l22.262,0l0,-62.108l78.517,0l0,62.108l25.975,0l0,63.088l-25.975,0l0,148.045Z" style="fill-rule:nonzero;"/><path d="M527.929,342.383l-78.516,0c0.654,-7.033 1.175,-13.737 1.562,-20.116c0.392,-6.384 0.783,-11.525 1.175,-15.43c-13.542,26.563 -31.708,39.842 -54.496,39.842c-19.791,0 -35.479,-9.896 -47.066,-29.687c-11.459,-19.663 -17.188,-46.875 -17.188,-81.642c0,-33.592 5.921,-60.025 17.771,-79.296c11.85,-19.529 27.996,-29.296 48.437,-29.296c20.963,0 37.892,12.629 50.784,37.892c-0.263,-2.604 -0.459,-4.883 -0.588,-6.838c-0.129,-1.954 -0.258,-3.579 -0.391,-4.883l-0.78,-12.304l-0.587,-9.375l79.883,0l0,211.133Zm-79.296,-108.204c0,-7.812 -0.291,-14.454 -0.879,-19.921c-0.587,-5.47 -1.529,-9.929 -2.833,-13.379c-1.3,-3.45 -2.996,-5.925 -5.079,-7.421c-2.084,-1.5 -4.621,-2.245 -7.617,-2.245c-13.279,0 -19.921,17.641 -19.921,52.929c0,25.258 5.925,37.887 17.775,37.887c12.367,0 18.554,-15.95 18.554,-47.85Z" style="fill-rule:nonzero;"/><path d="M673.829,273.438l0,72.07c-4.687,0.521 -8.792,0.88 -12.304,1.075c-3.517,0.196 -6.446,0.292 -8.792,0.292c-23.437,0 -43.033,-7.033 -58.787,-21.096c-10.679,-9.504 -19.338,-22.525 -25.979,-39.062c-6.638,-16.534 -9.959,-33.525 -9.959,-50.975c0,-30.988 9.504,-56.967 28.517,-77.929c18.879,-20.705 42.708,-31.055 71.483,-31.055c1.692,0 3.842,0.063 6.446,0.196c2.604,0.129 5.729,0.325 9.375,0.584l0,68.75c-23.179,1.562 -34.767,14.195 -34.767,37.891c0,10.679 2.863,20.054 8.592,28.125c5.863,7.684 12.829,11.525 20.9,11.525c0.783,0 1.596,-0.033 2.442,-0.1c0.846,-0.062 1.792,-0.162 2.833,-0.291Z" style="fill-rule:nonzero;"/><path d="M826.563,342.383l-30.275,-82.033c-1.43,-3.646 -3.775,-11.654 -7.03,-24.021l0,106.054l-78.321,0l0,-329.883l78.321,0l0,213.867c1.692,-5.467 3.546,-10.904 5.567,-16.309c2.017,-5.404 4.133,-10.904 6.346,-16.504l25.392,-62.304l84.766,0l-51.954,96.875l57.225,114.258l-90.038,0Z" style="fill-rule:nonzero;"/><path d="M1014.84,342.383l-80.075,0l0,-329.883l78.321,0l0,115.625c0,9.767 -0.392,20.963 -1.175,33.592c7.162,-12.759 14.387,-21.809 21.679,-27.146c7.554,-5.208 17.058,-7.813 28.516,-7.813c21.354,0 37.892,9.83 49.609,29.492c11.72,19.529 17.579,47.071 17.579,82.617c0,33.983 -6.054,60.416 -18.163,79.296c-11.979,19.012 -28.583,28.516 -49.804,28.516c-10.287,0 -19.012,-2.341 -26.175,-7.029c-3.512,-2.475 -7.125,-5.796 -10.837,-9.962c-3.713,-4.167 -7.454,-9.375 -11.229,-15.625c0.129,2.475 0.258,4.591 0.387,6.345c0.133,1.759 0.263,3.225 0.392,4.396l0.975,17.579Zm33.4,-105.275c0,-30.208 -6.642,-45.312 -19.921,-45.312c-11.721,0 -17.579,14.258 -17.579,42.775c0,29.816 6.054,44.725 18.162,44.725c12.892,0 19.338,-14.063 19.338,-42.188l0,0Z" style="fill-rule:nonzero;"/><path d="M1159.38,131.25l78.321,0l0,118.946c0,11.329 1.104,19.596 3.321,24.804c2.341,4.296 6.771,6.446 13.279,6.446c6.379,0 10.679,-2.15 12.892,-6.446c2.341,-4.296 3.516,-12.567 3.516,-24.804l0,-118.946l78.321,0l0,129.492c0,8.596 -0.683,16.375 -2.054,23.341c-1.367,6.967 -3.513,13.279 -6.442,18.946c-2.933,5.663 -6.708,10.838 -11.329,15.525c-4.625,4.688 -10.125,8.984 -16.504,12.892c-17.188,10.154 -36.654,15.233 -58.4,15.233c-22.004,0 -41.471,-5.079 -58.396,-15.233c-6.512,-3.909 -12.079,-8.171 -16.7,-12.792c-4.625,-4.625 -8.4,-9.8 -11.329,-15.529c-2.929,-5.729 -5.079,-12.075 -6.446,-19.042c-1.367,-6.966 -2.05,-14.746 -2.05,-23.341l0,-129.492l0,0Z" style="fill-rule:nonzero;"/><path d="M1474.41,342.383l-78.513,0l0,-148.045l-22.267,0l0,-63.088l22.267,0l0,-62.108l78.513,0l0,62.108l25.979,0l0,63.088l-25.979,0l0,148.045Z" style="fill-rule:nonzero;"/><path d="M1610.55,342.383l-78.517,0l0,-148.045l-22.262,0l0,-63.088l22.262,0l0,-62.108l78.517,0l0,62.108l25.979,0l0,63.088l-25.979,0l0,148.045Z" style="fill-rule:nonzero;"/><path d="M1850.2,240.038c0,32.554 -8.983,58.466 -26.954,77.737c-17.967,19.271 -42.059,28.904 -72.267,28.904c-29.687,0 -53.321,-9.829 -70.896,-29.491c-17.45,-19.792 -26.175,-46.355 -26.175,-79.688c0,-33.333 8.921,-60.092 26.759,-80.275c17.708,-20.312 41.212,-30.467 70.508,-30.467c30.858,0 55.079,10.092 72.658,30.271c17.575,20.184 26.367,47.854 26.367,83.009l0,0Zm-75.979,-2.538c0,-7.812 -0.521,-14.875 -1.563,-21.192c-1.041,-6.316 -2.537,-11.716 -4.491,-16.212c-1.95,-4.492 -4.296,-7.975 -7.03,-10.446c-2.733,-2.475 -5.795,-3.712 -9.179,-3.712c-6.641,0 -11.979,4.687 -16.016,14.062c-4.038,8.204 -6.055,20.508 -6.055,36.913c0,16.145 2.017,28.45 6.055,36.916c4.037,9.375 9.441,14.063 16.212,14.063c6.379,0 11.65,-4.625 15.817,-13.867c4.166,-10.288 6.25,-22.462 6.25,-36.525l0,0Z" style="fill-rule:nonzero;"/><path d="M2066.21,342.383l-78.321,0l0,-111.72c0,-9.634 -0.946,-16.342 -2.834,-20.117c-1.887,-3.775 -5.175,-5.663 -9.862,-5.663c-10.938,0 -16.409,10.35 -16.409,31.055l0.001,106.445l-78.321,0l0,-211.133l78.321,0c-0.13,5.208 -0.259,10.025 -0.388,14.454c-0.133,4.425 -0.329,8.529 -0.588,12.304l-0.783,13.475c12.633,-29.816 31.121,-44.725 55.471,-44.725c16.929,0 30.079,6.313 39.454,18.946c9.504,12.629 14.258,30.209 14.258,52.734l0.001,143.945Z" style="fill-rule:nonzero;"/></g></svg>