<?xml version="1.0" encoding="UTF-8" standalone="no"?><!DOCTYPE svg PUBLIC "-//W3C//DTD SVG 1.1//EN" "http://www.w3.org/Graphics/SVG/1.1/DTD/svg11.dtd"><svg width="100%" height="100%" viewBox="0 0 1230 1230" version="1.1" xmlns="http://www.w3.org/2000/svg" xmlns:xlink="http://www.w3.org/1999/xlink" xml:space="preserve" style="fill-rule:evenodd;clip-rule:evenodd;stroke-linejoin:round;stroke-miterlimit:1.41421;"><rect id="Artboard1" x="0" y="0" width="1230" height="1230" style="fill:none;"/><g><g><circle cx="615" cy="615" r="571.423" style="fill:#fff;"/><path d="M615.974,11.631c4.213,0.01 8.425,0.056 12.637,0.15c8.368,0.186 16.733,0.543 25.087,1.073c22.491,1.428 44.903,4.109 67.093,8.041c23.643,4.19 47.033,9.8 70.002,16.795c23.534,7.166 46.624,15.785 69.099,25.789c30.562,13.602 59.98,29.763 87.863,48.244c28.197,18.688 54.822,39.745 79.512,62.869c25.103,23.511 48.206,49.156 68.973,76.574c21.05,27.791 39.696,57.4 55.644,88.402c13.309,25.874 24.739,52.713 34.157,80.243c9.158,26.769 16.414,54.186 21.701,81.98c3.725,19.582 6.472,39.348 8.237,59.202c1.626,18.279 2.419,36.631 2.39,54.981c-0.043,27.234 -1.901,54.465 -5.596,81.448c-4.075,29.762 -10.381,59.215 -18.864,88.032c-9.024,30.657 -20.509,60.587 -34.302,89.414c-15.067,31.494 -32.882,61.669 -53.162,90.087c-21.564,30.217 -45.908,58.443 -72.622,84.22c-25.859,24.952 -53.936,47.605 -83.801,67.592c-15.378,10.291 -31.227,19.877 -47.485,28.714c-17.964,9.764 -36.426,18.613 -55.292,26.496c-17.32,7.237 -34.981,13.662 -52.905,19.241c-20.509,6.384 -41.361,11.664 -62.438,15.809c-17.973,3.535 -36.108,6.246 -54.329,8.129c-20.461,2.114 -41.029,3.18 -61.599,3.213c-19.307,0.03 -38.616,-0.85 -57.84,-2.651c-18.579,-1.741 -37.077,-4.343 -55.415,-7.8c-19.913,-3.755 -39.635,-8.52 -59.065,-14.272c-20.083,-5.947 -39.853,-12.947 -59.203,-20.963c-32.635,-13.521 -64.066,-29.929 -93.83,-48.953c-33.343,-21.314 -64.582,-45.908 -93.14,-73.301c-26.135,-25.067 -50.023,-52.474 -71.278,-81.793c-21.021,-28.995 -39.464,-59.858 -55.018,-92.118c-13.741,-28.499 -25.225,-58.083 -34.301,-88.392c-8.702,-29.061 -15.188,-58.782 -19.397,-88.825c-3.911,-27.919 -5.857,-56.11 -5.857,-84.301c0,-18.345 0.823,-36.69 2.476,-54.96c1.712,-18.908 4.314,-37.735 7.803,-56.396c5.257,-28.126 12.531,-55.873 21.752,-82.959c9.279,-27.259 20.528,-53.845 33.622,-79.491c15.443,-30.247 33.452,-59.18 53.754,-86.405c20.563,-27.575 43.476,-53.394 68.407,-77.093c24.952,-23.72 51.922,-45.314 80.533,-64.463c28.046,-18.771 57.665,-35.189 88.456,-49.006c22.438,-10.069 45.494,-18.757 68.999,-25.994c22.938,-7.063 46.3,-12.744 69.92,-17.006c22.166,-4 44.556,-6.75 67.03,-8.248c8.347,-0.556 16.706,-0.94 25.069,-1.152c4.208,-0.107 8.417,-0.167 12.627,-0.19c1.299,-0.005 2.598,-0.007 3.896,-0.006Zm-1.898,31.946c-3.993,0.01 -7.985,0.054 -11.978,0.143c-7.93,0.176 -15.857,0.515 -23.773,1.017c-21.598,1.371 -43.118,3.962 -64.421,7.771c-22.371,4.001 -44.501,9.345 -66.231,15.999c-21.989,6.734 -43.566,14.807 -64.575,24.158c-28.941,12.881 -56.799,28.186 -83.204,45.687c-26.95,17.862 -52.382,38.008 -75.947,60.143c-23.751,22.31 -45.603,46.639 -65.239,72.645c-19.551,25.892 -36.902,53.444 -51.787,82.273c-12.503,24.214 -23.264,49.326 -32.166,75.083c-8.745,25.305 -15.692,51.229 -20.777,77.515c-3.526,18.225 -6.157,36.622 -7.889,55.104c-1.678,17.909 -2.512,35.897 -2.512,53.885c0,26.109 1.76,52.219 5.301,78.088c3.897,28.467 9.952,56.637 18.109,84.188c8.505,28.729 19.294,56.778 32.224,83.805c14.64,30.602 32.021,59.887 51.85,87.411c20.055,27.838 42.609,53.87 67.298,77.693c25.737,24.833 53.79,47.26 83.689,66.884c29.399,19.294 60.577,35.873 93.023,49.431c18.019,7.529 36.426,14.127 55.125,19.758c18.356,5.528 36.993,10.123 55.815,13.764c17.929,3.468 36.024,6.071 54.202,7.803c17.901,1.706 35.882,2.569 53.863,2.597c17.994,0.029 35.989,-0.777 53.907,-2.428c18.193,-1.676 36.306,-4.222 54.255,-7.636c18.841,-3.583 37.5,-8.122 55.882,-13.595c18.722,-5.575 37.155,-12.118 55.202,-19.595c32.494,-13.461 63.728,-29.947 93.189,-49.157c29.96,-19.535 58.082,-41.88 83.894,-66.637c24.76,-23.749 47.391,-49.713 67.528,-77.489c19.908,-27.461 37.375,-56.689 52.106,-87.242c13.008,-26.98 23.88,-54.987 32.472,-83.681c8.239,-27.513 14.379,-55.651 18.364,-84.093c3.706,-26.452 5.548,-53.16 5.548,-79.869c0,-17.686 -0.806,-35.372 -2.428,-52.983c-1.676,-18.193 -4.223,-36.307 -7.637,-54.255c-5.004,-26.313 -11.873,-52.269 -20.544,-77.611c-8.824,-25.79 -19.511,-50.941 -31.943,-75.199c-14.8,-28.878 -32.071,-56.486 -51.546,-82.44c-19.559,-26.065 -41.339,-50.46 -65.024,-72.841c-23.497,-22.205 -48.868,-42.425 -75.762,-60.366c-26.348,-17.577 -54.155,-32.964 -83.051,-45.931c-20.975,-9.412 -42.52,-17.55 -64.481,-24.35c-21.701,-6.718 -43.805,-12.129 -66.153,-16.199c-21.28,-3.874 -42.78,-6.531 -64.361,-7.97c-7.909,-0.527 -15.829,-0.891 -23.754,-1.092c-3.989,-0.101 -7.979,-0.158 -11.969,-0.18c-1.231,-0.005 -2.462,-0.007 -3.694,-0.006Z" style="fill:#39aeae;fill-rule:nonzero;"/><path d="M615,57.514c307.685,0 557.486,249.801 557.486,557.486c0,307.685 -249.801,557.486 -557.486,557.486c-307.685,0 -557.486,-249.801 -557.486,-557.486c0,-307.685 249.801,-557.486 557.486,-557.486Zm-254.903,383.271c15.413,-6.742 104.245,-136.277 228.436,-145.391c0,0 -36.897,39.219 -25.11,38.608c113.298,-31.611 152.673,6.671 167.109,-11.499c14.435,-18.17 56.441,-57.237 11.457,-94.23c-35.176,-28.927 -53.003,26.453 -31.513,23.699c21.49,-2.753 35.479,-5.29 25.557,7.264c-9.921,12.554 -48.604,14.471 -54.098,-11.003c-5.494,-25.474 16.851,-59.834 77.938,-34.843c61.087,24.991 36.677,139.371 36.677,139.371c0,0 49.355,10.369 91.692,76.104c8.975,13.936 38.643,-43.599 38.899,-62.192c0.255,-18.592 6.146,-34.331 -22.617,-78.829c-28.764,-44.497 44.211,-27.706 87.255,22.949c43.044,50.655 115.86,195.98 -39.031,297.402c0,0 75.863,107.694 20.314,242.7c-55.146,134.023 -60.051,75.893 -62.757,64.381c0,0 -107.936,114.06 -139.429,103.168c-6.926,-2.396 2.649,-16.523 2.751,-16.505c0.102,0.018 -63.965,47.95 -81.908,46.43c0,0 9.635,-19.312 4.692,-21.202c0,0 -47.333,44.347 -67.657,48.125c-14.745,2.742 -78.979,-47.744 -99.944,-49.513c-25.756,-2.173 -31.346,-4.03 -67.015,-22.546c0,0 -4.691,7.798 1.914,17.961c0,0 -9.927,11.924 -101.778,-81.605c0,0 -1.607,17.123 1.834,20.172c0,0 -26.776,-5.066 -93.526,-115.532c0,0 -5.271,10.084 1.206,16.433c0,0 -77.542,-72.739 13.465,-241.995c0,0 -119.085,-106.835 -103.612,-201.721c15.473,-94.887 88.032,-166.264 130.327,-163.974c42.295,2.29 -5.95,32.757 -17.174,95.758c-11.619,65.222 50.233,98.798 65.646,92.055Z" style="fill:#39aeae;"/><path d="M439.392,689.256c21.212,0.598 38.893,34.259 32.186,57.657c-6.707,23.398 -21.222,35.066 -37.784,31.911c-16.562,-3.155 -39.534,-24.053 -34.985,-53.82c4.549,-29.768 28.63,-36.085 40.583,-35.748Z" style="fill:#39aeae;"/><path d="M802.086,685.323c12.175,1.044 39.742,5.432 40.131,37.593c0.521,43.187 -28.15,56.348 -48.087,51.457c-19.938,-4.892 -33.747,-35.618 -24.96,-57.721c8.788,-22.103 20.742,-32.373 32.916,-31.329Z" style="fill:#39aeae;"/><path d="M622.335,753.528c40.998,1.455 90.664,4.118 125.871,29.818c39.645,28.94 22.436,53.799 -2.606,66.808c-25.041,13.009 -33.975,16.874 -50.828,39.078c-16.853,22.203 -43.736,28.274 -70.603,27.507c-26.867,-0.767 -55.606,-16.12 -82.522,-49.514c-18.222,-22.606 -53.184,-13.083 -65.102,-30.258c-11.917,-17.175 -15.839,-48.969 25.674,-62.35c41.513,-13.381 79.491,-22.531 120.116,-21.089Z" style="fill:#39aeae;"/><path d="M377.23,480.735c0,0 -53.726,62.678 -104.576,84.276c0,0 69.92,13.685 106.395,1.537c0,0 -8.736,67.289 93.972,103.457c0,0 -2.769,-10.615 2.814,-26.674c0,0 122.661,76.584 208.031,89.344c0,0 15.798,-106.595 63.102,-120.183c47.304,-13.587 18.505,44.001 1.121,61.692c0,0 133.903,-10.455 140.714,-74.486c0,0 29.415,10.745 31.096,68.727c19.693,-20.956 64.515,-108.596 -20.523,-146.182c0,0 16.267,23.383 16.831,67.358c0,0 -17.499,-26.159 -46.024,-31.416c2.943,12.449 -4.734,75.62 -71.201,77.712c0,0 32.539,-76.643 -38.422,-70.878c-50.1,4.071 -76.451,49.205 -92.029,135.102c-112.882,-38.846 -193.118,-113.7 -195.51,-185.574c0,0 -40.092,68.246 -37.398,100.453c0,0 -20.088,-56.362 -20.251,-111.43c0,0 -44.716,38.842 -69.356,35.102c0,0 16.904,-28.209 31.214,-57.937Z" style="fill:#39aeae;"/></g></g></svg>