<?xml version="1.0" encoding="UTF-8" standalone="no"?><!DOCTYPE svg PUBLIC "-//W3C//DTD SVG 1.1//EN" "http://www.w3.org/Graphics/SVG/1.1/DTD/svg11.dtd"><svg width="100%" height="100%" viewBox="0 0 1230 1230" version="1.1" xmlns="http://www.w3.org/2000/svg" xmlns:xlink="http://www.w3.org/1999/xlink" xml:space="preserve" style="fill-rule:evenodd;clip-rule:evenodd;stroke-linecap:round;stroke-linejoin:round;stroke-miterlimit:1.5;"><rect id="Artboard1" x="0" y="0" width="1230" height="1230" style="fill:none;"/><circle cx="613.379" cy="614.189" r="614.189" style="fill:#fff;"/><g><g><path d="M615,35.222c319.988,0 579.778,259.79 579.778,579.778c0,319.988 -259.79,579.778 -579.778,579.778c-319.988,0 -579.778,-259.79 -579.778,-579.778c0,-319.988 259.79,-579.778 579.778,-579.778Zm-265.096,398.598c16.029,-7.013 109.921,-120.714 145.899,-122.059c0,0 -10.927,21.523 1.33,20.889c12.258,-0.635 94.221,-22.743 117.867,-46.636c3.637,13.202 -14.552,36.792 -14.304,37.19c0.249,0.399 119.443,6.5 134.455,-12.397c15.013,-18.897 58.699,-59.525 11.916,-97.997c-36.582,-30.083 -55.122,27.511 -32.773,24.647c22.349,-2.865 21.719,-11.98 1.785,-8.657c-0.131,0.014 2.919,-11.183 13.525,-10.235c10.605,0.947 21.587,13.389 11.269,26.445c-10.319,13.056 -50.547,15.05 -56.262,-11.443c-5.714,-26.493 17.526,-62.226 81.055,-36.236c63.529,25.991 58.829,131.23 38.143,144.945c0,0 23.498,27.304 82.008,24.793c0,0 5.461,12.181 -22.886,15.258c0,0 25.378,25.706 36.236,39.096c10.858,13.39 40.189,-45.344 40.454,-64.679c0.267,-19.336 6.393,-35.704 -23.52,-81.981c-29.914,-46.277 45.979,-28.814 90.744,23.867c44.765,52.679 120.493,203.816 -40.592,309.293c0,0 78.897,112.001 21.126,252.404c-57.35,139.382 -62.451,78.929 -65.266,66.956c0,0 -112.252,118.621 -145.004,107.293c-7.203,-2.492 2.755,-17.183 2.861,-17.165c0.105,0.019 -66.524,49.868 -85.183,48.287c0,0 10.02,-20.085 4.88,-22.05c0,0 -49.227,46.12 -70.363,50.05c-15.334,2.851 -82.137,-49.654 -103.941,-51.494c-26.786,-2.26 -32.598,-4.191 -69.695,-23.447c0,0 -4.877,8.11 1.991,18.68c0,0 -10.323,12.4 -105.847,-84.869c0,0 -1.672,17.808 1.906,20.979c0,0 -27.845,-5.269 -97.265,-120.151c0,0 -5.481,10.487 1.254,17.09c0,0 -80.642,-75.649 14.004,-251.672c0,0 -123.846,-111.107 -107.755,-209.788c16.091,-98.68 91.552,-172.911 135.539,-170.53c43.986,2.381 -6.189,34.067 -17.861,99.587c-12.084,67.831 52.241,102.749 68.27,95.737l0,0Z" style="fill:#39aeae;"/><path d="M417.609,672.215c14.454,0.494 26.502,28.33 21.932,47.679c-4.57,19.348 -14.462,28.997 -25.747,26.388c-11.285,-2.609 -26.939,-19.89 -23.839,-44.506c3.099,-24.616 19.509,-29.84 27.654,-29.561l0,0Z" style="fill:#39aeae;"/><path d="M795.227,678.89c7.759,0.731 25.329,3.803 25.577,26.318c0.332,30.234 -17.942,39.447 -30.648,36.022c-12.707,-3.423 -21.508,-24.934 -15.908,-40.407c5.601,-15.475 13.219,-22.664 20.979,-21.933l0,0Z" style="fill:#39aeae;"/><path d="M340.368,461.473c0,0 -23.475,17.965 -56.261,30.515c0,0 -3.053,15.577 27.654,18.118c0,0 -16.745,58.109 50.54,100.126c0,0 -51.229,-53.622 -42.911,-91.544c3.325,-15.16 23.468,-13.719 22.886,-13.35c0,0 -9.279,-7.147 -20.415,-4.842c-11.138,2.305 -24.855,-2.42 -24.403,-2.787c0.451,-0.366 36.814,-20.465 42.91,-36.236l0,0Z" style="fill:#39aeae;"/><clipPath id="_clip1"><path d="M340.368,461.473c0,0 -23.475,17.965 -56.261,30.515c0,0 -3.053,15.577 27.654,18.118c0,0 -16.745,58.109 50.54,100.126c0,0 -51.229,-53.622 -42.911,-91.544c3.325,-15.16 23.468,-13.719 22.886,-13.35c0,0 -9.279,-7.147 -20.415,-4.842c-11.138,2.305 -24.855,-2.42 -24.403,-2.787c0.451,-0.366 36.814,-20.465 42.91,-36.236l0,0Z"/></clipPath><g clip-path="url(#_clip1)"><ellipse cx="623.105" cy="613.57" rx="589.191" ry="579.301" style="fill:none;stroke:#39aeae;stroke-width:0.97px;"/></g><path d="M365.161,606.417c0,0 -4.807,-17.38 4.769,-22.885c9.576,-5.505 -9.065,9.524 59.122,45.772c0,0 -28.622,8.587 -54.354,-29.561c0,0 -3.382,-2.491 -9.537,6.674l0,0Z" style="fill:#39aeae;"/><path d="M443.355,629.304c0,0 -8.933,-25.544 6.675,-12.397c15.609,13.148 103.031,84.435 116.527,70.72c9.072,-9.221 -5.766,-18.831 -0.19,-30.669c5.577,-11.839 13.365,27.234 92.498,47.679c0,0 -7.04,12.825 -30.85,1.937c-23.809,-10.888 -51.159,-34.359 -51.159,-34.359c0,0 2.886,23.206 -11.666,22.241c-44.357,-2.941 -123.274,-66.133 -121.835,-65.152Z" style="fill:#39aeae;"/><path d="M921.099,493.895c0,0 21.591,36.765 48.633,56.262c0,0 -6.435,11.289 -20.024,12.396c0,0 0.642,35.913 -16.212,50.54c0,0 6.605,-41.456 0.954,-55.308c-4.211,-10.322 12.524,-5.157 21.932,-5.722c0,0 -31.421,-30.82 -35.283,-58.168l0,0Z" style="fill:#39aeae;"/><path d="M923.961,614.046c0,0 -5.798,-28.976 -14.305,-40.05c0,0 -29.561,46.481 -83.915,63.89c0,0 19.27,-30.511 4.768,-48.633c0,0 -57.953,59.42 -79.147,74.38c0,0 42.081,-19.484 63.89,-41.958c21.809,-22.474 5.349,14.762 -4.025,25.963c0,0 39.474,1.41 98.429,-53.617l14.305,20.025Z" style="fill:#39aeae;"/><path d="M738.965,668.4c0,0 11.573,-30.784 6.675,-42.911c-4.897,-12.126 -33.454,61.05 -69.611,73.426c0,0 20.909,-27.123 36.236,-42.911c15.328,-15.789 20.754,-42.344 35.425,-39.12c14.67,3.226 5.599,31.601 -8.725,51.516l0,0Z" style="fill:#39aeae;"/><path d="M622.629,753.269c42.637,1.513 94.289,4.284 130.903,31.011c41.231,30.097 23.334,55.95 -2.709,69.479c-26.043,13.529 -35.334,17.549 -52.862,40.641c-17.526,23.09 -45.484,29.404 -73.426,28.607c-27.941,-0.797 -57.829,-16.764 -85.821,-51.493c-18.95,-23.511 -55.311,-13.607 -67.705,-31.469c-12.394,-17.861 -16.472,-50.927 26.7,-64.844c43.173,-13.915 82.67,-23.431 124.92,-21.932Zm2.86,7.629c0,0 148.192,1.998 143.038,66.751c-1.255,15.763 -30.982,17.341 -59.123,40.05c-28.139,22.71 -26.948,45.05 -81.054,43.865c-54.105,-1.185 -52.391,-13.841 -87.73,-48.633c-22.248,-21.905 -55.975,-11.381 -67.703,-43.865c-8.661,-23.987 44.763,-57.752 152.572,-58.168l0,0Z" style="fill:#39aeae;"/></g></g></svg>