<?xml version="1.0" encoding="UTF-8" standalone="no"?><!DOCTYPE svg PUBLIC "-//W3C//DTD SVG 1.1//EN" "http://www.w3.org/Graphics/SVG/1.1/DTD/svg11.dtd"><svg width="100%" height="100%" viewBox="0 0 5496 4633" version="1.1" xmlns="http://www.w3.org/2000/svg" xmlns:xlink="http://www.w3.org/1999/xlink" xml:space="preserve" style="fill-rule:evenodd;clip-rule:evenodd;stroke-linejoin:round;stroke-miterlimit:1.41421;"><g><g><path d="M2240.41,705.389l509.299,702.626l414.612,-513.563l109.152,528.381l909.498,-662.486l-489.9,854.228l730.26,-144.796l-497.936,475.486l1119.23,41.561l-1120.19,362.58l496.008,333.005l-730.069,64.541l486.16,714.311l-906.959,-402.099l-111.748,560.047l-412.445,-395.005l-512.999,849.171l-10.766,-863.989l-635.355,365.362l215.758,-557.104l-1125.86,344.587l893.536,-675.278l-680.528,-104.448l681.491,-299.692l-890.925,-419.477l1124.99,21.931l-213.248,-495.606l634.047,183.393l14.894,-867.667Z"/><path d="M2302.49,902.559l446.955,616.616l363.859,-450.697l95.791,463.701l798.166,-581.39l-429.932,749.661l640.869,-127.071l-436.983,417.282l982.225,36.473l-983.071,318.196l435.291,292.242l-640.7,56.64l426.649,626.872l-795.938,-352.877l-98.069,491.491l-361.957,-346.652l-450.203,745.223l-9.447,-758.228l-557.582,320.638l189.348,-488.909l-988.043,302.407l784.157,-592.617l-597.223,-91.663l598.069,-263.006l-781.867,-368.129l987.276,19.246l-187.144,-434.938l556.433,160.944l13.071,-761.455Z" style="fill:#cf0226;"/><path d="M2378.28,1201.61l361.348,483.178l282.908,-361.325l81.362,366.194l625.406,-469.987l-331.716,598.934l506.169,-108.235l-341.23,335.719l778.512,17.285l-774.991,263.68l348.275,226.359l-506.869,52.439l345.383,491.542l-634.681,-270.13l-71.879,390.499l-290.825,-270.327l-347.826,595.657l-16.444,-600.527l-437.906,260.586l144.216,-389.532l-779.115,251.231l614.176,-478.715l-474.181,-65.554l470.66,-215.411l-623.715,-282.378l782.309,3.579l-153.388,-342.33l442.686,120.919l1.356,-603.35Z" style="fill:#5ca2d8;"/></g><path d="M2486.68,2277.29l33.057,-483.262c1.031,-6.174 1.468,-12.477 3.094,-18.522c3.266,-12.147 8.87,-23.54 16.497,-33.542c7.627,-10.002 17.131,-18.421 27.98,-24.786c14.512,-8.513 19.174,-8.404 35.288,-12.329l202.917,-28.956c5.924,-0.295 11.845,-1.135 17.771,-0.884c11.902,0.506 23.608,3.204 34.529,7.961c10.922,4.756 20.871,11.489 29.348,19.859c11.334,11.191 12.477,15.411 20.229,29.093l53.449,118.601l92.099,-170.362l10.019,-14.998c4.21,-4.292 8.038,-8.996 12.629,-12.877c9.223,-7.797 19.824,-13.799 31.255,-17.694c5.691,-1.939 11.694,-2.801 17.541,-4.201l204.234,-29.144l19.096,-0.818c6.294,0.984 12.589,1.968 18.884,2.952c5.978,2.202 12.203,3.824 17.935,6.606c11.52,5.591 21.815,13.414 30.289,23.014c8.474,9.599 14.958,20.786 19.076,32.91c5.509,16.219 4.398,20.851 4.915,37.721l-15.733,229.999l0.798,-0.203c4.217,-1.044 5.307,-1.144 9.586,-1.866l276.983,-39.524c2.85,-0.379 5.704,-0.692 8.574,-0.887c2.208,-0.15 4.419,-0.241 6.632,-0.274c0.71,-0.011 1.42,-0.009 2.13,-0.013c0.702,0.007 1.404,0.014 2.105,0.021c2.074,0.056 4.143,0.127 6.213,0.265c5.178,0.345 10.335,1 15.438,1.938c5.216,0.958 10.377,2.215 15.458,3.731c4.123,1.23 8.194,2.635 12.216,4.162c6.914,2.624 13.677,5.644 20.253,9.029c0.992,0.511 1.98,1.031 2.962,1.56c2.413,-3.632 5.072,-7.1 7.956,-10.374c8.617,-9.782 19.212,-17.781 30.98,-23.389c5.881,-2.802 12.044,-5.008 18.367,-6.574c4.217,-1.044 5.307,-1.145 9.587,-1.866l233.523,-33.324c4.338,-0.507 5.419,-0.717 9.787,-0.892c1.637,-0.066 3.276,-0.049 4.915,-0.073c1.637,0.059 3.274,0.119 4.912,0.178c3.066,0.267 4.518,0.352 6.616,0.629c5.025,-2.204 10.238,-3.981 15.565,-5.303c4.236,-1.051 5.331,-1.152 9.631,-1.877l125.613,-17.925c4.321,-0.505 5.398,-0.715 9.748,-0.891c6.524,-0.265 13.073,0.133 19.516,1.186c11.28,1.842 22.215,5.698 32.155,11.339c9.941,5.641 18.859,13.05 26.225,21.789c3.156,3.744 6.027,7.727 8.581,11.905c2.27,3.715 2.695,4.727 4.675,8.6l0.061,0.135l4.078,-13.156l1.591,-4.701c0.609,-1.537 1.18,-3.091 1.829,-4.612c1.947,-4.565 4.246,-8.98 6.87,-13.192c5.249,-8.427 11.799,-16.033 19.354,-22.473c7.555,-6.441 16.102,-11.705 25.253,-15.555c4.574,-1.924 9.297,-3.496 14.112,-4.697c4.282,-1.067 5.39,-1.168 9.737,-1.903l125.614,-17.925c1.653,-0.192 3.302,-0.427 4.96,-0.577c4.423,-0.4 5.54,-0.328 9.977,-0.384c1.663,0.064 3.326,0.129 4.99,0.194c4.419,0.401 5.538,0.416 9.917,1.159c8.207,1.392 16.231,3.848 23.812,7.288c7.58,3.441 14.711,7.864 21.163,13.125c9.034,7.369 16.711,16.374 22.557,26.461c6.684,11.53 10.941,24.428 12.435,37.672c1.119,9.928 0.69,20.022 -1.27,29.82c-0.871,4.355 -1.256,5.405 -2.46,9.676l-5.302,17.1c-0.53,1.567 -1.02,3.148 -1.59,4.7c-1.141,3.107 -2.44,6.153 -3.893,9.126c-0.726,1.486 -1.507,2.945 -2.292,4.401c-0.312,0.578 -0.666,1.133 -0.999,1.699l-0.18,1.416c-0.297,1.644 -0.551,3.296 -0.89,4.932c-0.905,4.365 -1.3,5.417 -2.54,9.694l-8.314,26.132c-0.538,1.553 -1.037,3.12 -1.614,4.658c-1.477,3.937 -1.897,4.674 -3.587,8.307l-0.052,0.431c-0.282,1.639 -0.522,3.287 -0.846,4.918c-0.866,4.354 -1.25,5.404 -2.448,9.674l-10,32.394c-0.529,1.569 -1.018,3.152 -1.587,4.707c-1.329,3.634 -1.543,4.001 -2.864,6.897l-0.269,1.536c-1.116,4.873 -1.116,4.873 -2.483,9.682l-11.808,37.813c-1.597,4.689 -1.597,4.689 -3.432,9.29l-0.618,1.345l-0.274,1.28l-1.288,4.792l-12.772,43.113l-1.55,4.773c-1.328,3.466 -1.265,3.491 -2.77,6.882l-0.349,1.242l-15.303,49.495l-1.588,4.705l-0.08,0.203l-0.208,0.731l-97.96,314.193l-1.595,4.691c-1.629,4.09 -1.961,5.15 -3.901,9.107c-2.182,4.449 -4.706,8.73 -7.543,12.794c-5.675,8.128 -12.604,15.371 -20.472,21.401c-7.868,6.031 -16.663,10.839 -25.987,14.207c-4.661,1.683 -9.451,3.008 -14.315,3.958c-1.621,0.317 -3.257,0.55 -4.886,0.826l-116.34,16.601c-4.316,0.505 -5.391,0.714 -9.737,0.891c-6.515,0.265 -13.057,-0.131 -19.493,-1.18c-14.495,-2.362 -28.393,-8.059 -40.376,-16.55c-10.648,-7.545 -19.728,-17.25 -26.549,-28.375c-4.26,-6.95 -7.637,-14.438 -10.024,-22.233c-1.274,-4.158 -1.433,-5.242 -2.387,-9.481l-13.595,-68.425l-5.729,86.072c-0.398,4.32 -0.416,5.413 -1.139,9.695c-1.085,6.419 -2.82,12.728 -5.17,18.8c-4.113,10.629 -10.116,20.51 -17.653,29.06c-8.616,9.773 -19.207,17.765 -30.97,23.368c-5.878,2.8 -12.038,5.004 -18.358,6.569c-4.215,1.043 -5.304,1.143 -9.581,1.864l-233.524,33.324c-4.341,0.507 -5.423,0.717 -9.795,0.892c-8.194,0.329 -16.426,-0.39 -24.44,-2.133c-9.617,-2.092 -18.904,-5.66 -27.449,-10.544c-4.204,-2.404 -8.223,-5.124 -12.017,-8.128c-4.118,4.084 -8.391,8.018 -12.866,11.707c-2.166,1.786 -4.381,3.511 -6.636,5.183c-11.468,8.504 -24.232,15.336 -37.804,19.808c-4.763,1.57 -9.622,2.85 -14.543,3.819c-1.96,0.386 -3.929,0.714 -5.905,1.008l-284.398,40.584c-4.342,0.507 -5.424,0.717 -9.795,0.892c-8.194,0.329 -16.427,-0.39 -24.44,-2.133c-9.617,-2.092 -18.905,-5.66 -27.45,-10.544c-2.118,-1.211 -4.189,-2.503 -6.208,-3.871c-3.154,3.805 -6.603,7.371 -10.319,10.662c-9.415,8.341 -20.367,14.765 -32.241,18.914c-5.91,2.065 -12.164,2.963 -18.245,4.445l-210.823,30.084c-16.847,0.723 -21.38,2.169 -37.946,-2.126c-12.383,-3.21 -24.007,-8.844 -34.199,-16.576c-10.192,-7.732 -18.75,-17.409 -25.177,-28.47c-6.428,-11.061 -10.598,-23.287 -12.269,-35.97c-2.268,-17.21 1.768,-54.775 2.473,-65.335l-11.285,7.11c-5.987,2.276 -11.777,5.158 -17.96,6.828c-12.428,3.357 -25.4,4.201 -38.158,2.481c-6.347,-0.855 -12.64,-2.352 -18.693,-4.445c-6.053,-2.093 -11.63,-5.367 -17.446,-8.051l-5.061,-3.7l-7.117,102.777l-3.107,18.508c-2.207,5.854 -3.856,11.949 -6.62,17.561c-5.555,11.276 -13.254,21.363 -22.667,29.695c-9.412,8.331 -20.358,14.749 -32.226,18.894c-5.906,2.063 -12.156,2.96 -18.234,4.44l-209.505,29.897c-15.361,0.657 -20.494,1.918 -33.82,-1.118c-13.028,7.053 -17.397,7.06 -32.062,10.519l-218.728,31.212c-15.814,0.776 -20.023,2.085 -35.644,-1.559c-5.816,-1.356 -11.53,-3.261 -16.996,-5.667c-10.98,-4.832 -20.965,-11.663 -29.447,-20.146c-8.481,-8.483 -15.312,-18.469 -20.142,-29.448c-4.852,-11.028 -7.093,-23.12 -9.804,-34.75l-42.776,6.104l-18.745,56.206l-7.175,16.321c-3.349,4.909 -6.26,10.148 -10.047,14.727c-7.606,9.199 -16.849,16.91 -27.262,22.745c-5.184,2.906 -10.66,5.341 -16.289,7.246c-5.629,1.905 -11.561,2.756 -17.342,4.134l-220.046,31.4c-15.621,0.784 -19.77,2.068 -35.212,-1.459c-11.549,-2.638 -22.515,-7.374 -32.353,-13.973c-2.062,-1.383 -4.066,-2.842 -6.009,-4.376c-4.805,3.177 -9.718,6.191 -14.717,9.056c-12.974,7.435 -26.534,13.837 -40.493,19.195c-6.164,2.366 -12.407,4.53 -18.711,6.495c-3.946,1.23 -7.919,2.372 -11.904,3.472c-3.568,0.984 -7.145,1.933 -10.733,2.845c-12.104,3.077 -24.316,5.734 -36.61,7.934c-5.701,1.02 -11.419,1.929 -17.151,2.76l-428.339,61.124c-16.862,0.722 -21.4,2.17 -37.98,-2.134c-12.394,-3.218 -24.026,-8.864 -34.222,-16.61c-5.073,-3.855 -9.786,-8.234 -14.002,-13.01c-8.474,-9.6 -14.958,-20.786 -19.076,-32.911c-5.509,-16.219 -4.398,-20.851 -4.915,-37.721l66.219,-968.057c2.733,-16.359 2.282,-21 9.707,-36.097c5.551,-11.287 13.25,-21.384 22.666,-29.724c9.415,-8.341 20.367,-14.765 32.241,-18.914c5.909,-2.065 12.164,-2.963 18.245,-4.444c121.944,-17.401 243.849,-35.073 365.831,-52.199c2.872,-0.39 5.746,-0.768 8.624,-1.113c7.194,-0.863 14.408,-1.563 21.634,-2.1c7.214,-0.536 14.44,-0.908 21.67,-1.114c2.89,-0.083 5.781,-0.132 8.672,-0.168c2.166,-0.017 4.331,-0.024 6.497,-0.022c6.57,0.04 13.135,0.277 19.686,0.78c17.677,1.358 35.227,4.553 52.156,9.85c5.768,1.805 11.467,3.841 17.054,6.148c7.985,3.298 15.743,7.151 23.176,11.554c6.694,3.966 13.124,8.375 19.225,13.202c8.191,6.482 15.785,13.715 22.658,21.582c3.651,4.179 7.119,8.531 10.329,13.059c2.806,3.956 5.41,8.055 7.806,12.272c6.561,11.548 11.521,23.976 14.885,36.821c3.372,12.877 5.138,26.145 5.555,39.442c0.23,7.324 0.033,14.647 -0.471,21.956l-15.336,213.508c0.604,0.506 1.202,1.019 1.8,1.531l1.276,1.113c1.278,1.137 2.549,2.28 3.798,3.448c2.374,2.221 4.688,4.508 6.929,6.864c3.543,3.726 6.882,7.646 9.998,11.736c8.286,10.874 14.977,22.942 19.936,35.679c3.558,9.138 6.24,18.606 8.099,28.232c0.637,3.296 1.177,6.609 1.625,9.935l156.815,-503.232c2.333,-5.58 4.153,-11.404 6.999,-16.742c5.718,-10.721 13.404,-20.27 22.657,-28.147c9.252,-7.876 19.906,-13.939 31.403,-17.872c5.723,-1.957 11.763,-2.824 17.645,-4.237l198.963,-28.391l18.374,-0.856c6.068,0.879 12.135,1.758 18.203,2.637c5.792,2.011 11.801,3.481 17.376,6.033c11.199,5.129 21.316,12.349 29.807,21.273c8.491,8.924 15.201,19.387 19.767,30.827c2.273,5.694 3.443,11.769 5.164,17.653l86.356,450.5Z"/><g><path d="M1389.3,2332.01l10.563,-142.677l108.047,-15.418l-10.564,142.677l-108.046,15.418Zm-14.716,217.215l160.752,-22.939c6.149,-0.877 10.478,1.194 12.987,6.214l-11.319,165.641l-173.929,24.819l11.509,-173.735Zm-233.094,420.47l428.233,-61.108c18.447,-2.632 37.145,-6.645 56.095,-12.038c18.949,-5.393 36.236,-13.014 51.86,-22.862c15.625,-9.848 28.678,-22.018 39.158,-36.51c10.48,-14.493 16.475,-32.154 17.984,-52.984l27.168,-403.185c1.133,-23.466 -3.821,-40.909 -14.862,-52.33c-11.041,-11.421 -25.847,-19.392 -44.419,-23.912l19.807,-275.754c1.509,-20.831 -2.159,-37.113 -11.004,-48.848c-8.844,-11.734 -20.608,-20.363 -35.289,-25.887c-14.681,-5.524 -31.213,-8.318 -49.597,-8.384c-18.384,-0.065 -36.799,1.218 -55.246,3.85l-363.669,51.895l-66.219,968.057Z" style="fill:#f9f400;fill-rule:nonzero;"/><path d="M2117.91,2510.37l54.615,-182.574l34.984,169.789l-89.599,12.785Zm366.254,267.72l-178.862,-933.084l-198.963,28.392l-312.618,1003.22l220.046,-31.401l37.663,-112.932l189.74,-27.075l24.266,104.095l218.728,-31.213Z" style="fill:#f9f400;fill-rule:nonzero;"/><path d="M3342.28,1697.03l-66.219,968.057l-210.823,30.084l29.999,-449.3l-177.927,317.14l-127.014,-268.248l-30.75,444.03l-209.505,29.896l66.219,-968.057l202.917,-28.956l133.785,296.86l185.084,-342.362l204.234,-29.144Z" style="fill:#f9f400;fill-rule:nonzero;"/><path d="M3688.87,2606.18c6.183,-0.882 12.827,-4.555 19.934,-11.017c7.106,-6.462 13.631,-13.988 19.573,-22.578c5.943,-8.59 10.862,-17.32 14.757,-26.191c3.896,-8.872 6.004,-16.198 6.327,-21.978l15.45,-229.301l-118.869,16.963l-11.708,171.132c-0.884,5.861 -3.253,9.353 -7.107,10.476l-95.264,13.594l12.071,-180.646l-118.869,16.962l-20.4,303.125l284.105,-40.541Zm-37.619,-486.673c2.89,0.161 5.419,3.815 7.585,10.961l118.87,-16.963l1.57,-31.191l-339.747,48.481l-1.57,31.192l118.869,-16.963l0.845,-12.163l93.578,-13.354Zm131.525,-85.004l-0.722,-5.059l-338.904,48.361l-1.569,25.17l339.747,-48.481l1.448,-19.991Zm-357.49,303.915l118.869,-16.963l3.5,-47.811l-118.869,16.963l-3.5,47.811Zm220.877,-31.519l118.87,-16.962l3.5,-47.812l-118.87,16.963l-3.5,47.811Zm-199.031,-279.554l-1.086,16.499l314.456,-44.872c-6.262,-3.695 -12.705,-6.646 -19.328,-8.855c-6.624,-2.209 -12.465,-2.953 -17.523,-2.231l-276.519,39.459Zm-17.381,251.941l118.869,-16.962l2.656,-41.669l-118.869,16.962l-2.656,41.669Zm220.878,-31.519l118.869,-16.962l2.656,-41.669l-118.869,16.962l-2.656,41.669Zm-217.256,-27.492l118.869,-16.962l2.535,-36.491l-118.869,16.963l-2.535,36.49Zm220.878,-31.519l118.869,-16.962l2.535,-36.491l-118.869,16.963l-2.535,36.49Z" style="fill:#f9f400;fill-rule:nonzero;"/><path d="M3840.62,2584.53l233.524,-33.324l8.208,-123.321l-114.654,16.361l9.656,-137.292l114.654,-16.36l2.536,-42.513l-233.523,33.324l-20.401,303.125Zm20.522,-308.304l233.523,-33.323l3.5,-47.811l-233.523,33.323l-3.5,47.811Zm239.315,-107.268l-114.654,16.361l1.329,-26.856l-118.869,16.963l-2.656,41.669l233.523,-33.324l1.327,-14.813Zm-106.928,-98.289l114.654,-16.361l0.725,-19.028l-233.523,33.323l-1.57,31.192l118.869,-16.962l0.845,-12.164Zm-116.092,-29.885l233.523,-33.324l1.569,-25.17l-233.523,33.324l-1.569,25.17Zm-8.208,117.299l118.869,-16.962l2.535,-36.491l-118.869,16.963l-2.535,36.49Zm247.283,-226.253l-233.524,33.323l-1.086,16.499l233.523,-33.323l1.087,-16.499Z" style="fill:#f9f400;fill-rule:nonzero;"/><path d="M4360.45,2254.87l-8.785,-43.478l-124.77,17.805l58.003,291.937l116.34,-16.602l97.96,-314.192l-124.771,17.804l-13.977,46.726Zm-135.12,-30.611l125.613,-17.925l-9.145,-46.006l-124.771,17.804l8.303,46.127Zm150.905,-21.534l124.77,-17.804l15.303,-49.496l-124.771,17.805l-15.302,49.495Zm-161.615,-35.432l125.614,-17.925l-8.304,-40.105l-124.77,17.804l7.46,40.226Zm181.255,-25.865l124.77,-17.804l12.773,-43.113l-124.771,17.804l-12.772,43.113Zm17.954,-61.056l125.613,-17.925l11.808,-37.814l-125.613,17.925l-11.808,37.814Zm-210.761,30.075l125.613,-17.925l-6.739,-35.167l-125.613,17.925l6.739,35.167Zm230.521,-90.529l124.77,-17.805l10.001,-32.394l-125.613,17.925l-9.158,32.274Zm-240.268,34.286l124.771,-17.805l-6.017,-30.109l-125.614,17.925l6.86,29.989Zm259.065,-95.463l124.77,-17.804l8.314,-26.133l-125.613,17.925l-7.471,26.012Zm-270.617,38.617l124.77,-17.805l-4.332,-24.328l-125.613,17.925l5.175,24.208Zm290.257,-99.914l125.613,-17.924l5.302,-17.101l-125.613,17.925l-5.302,17.1Zm-304.096,27.05l3.129,15.898l125.614,-17.925l-3.129,-15.898l-125.614,17.925Z" style="fill:#f9f400;fill-rule:nonzero;"/></g></g></svg>